<?xml version="1.0" encoding="UTF-8"?>
<svg xmlns="http://www.w3.org/2000/svg" xmlns:xlink="http://www.w3.org/1999/xlink" width="135.312pt" height="91.705pt" viewBox="0 0 135.312 91.705" version="1.1">
<defs>
<g>
<symbol overflow="visible" id="glyph0-0">
<path style="stroke:none;" d=""/>
</symbol>
<symbol overflow="visible" id="glyph0-1">
<path style="stroke:none;" d="M 3.734375 -0.765625 C 3.734375 -0.453125 3.734375 0 4.765625 0 L 5.25 0 C 5.4375 0 5.5625 0 5.5625 -0.234375 C 5.5625 -0.46875 5.4375 -0.46875 5.296875 -0.46875 C 4.6875 -0.484375 4.6875 -0.609375 4.6875 -0.84375 L 4.6875 -2.984375 C 4.6875 -3.875 3.984375 -4.515625 2.5 -4.515625 C 1.9375 -4.515625 0.71875 -4.46875 0.71875 -3.59375 C 0.71875 -3.15625 1.0625 -2.96875 1.328125 -2.96875 C 1.640625 -2.96875 1.96875 -3.1875 1.96875 -3.59375 C 1.96875 -3.890625 1.78125 -4.0625 1.75 -4.09375 C 2.03125 -4.140625 2.34375 -4.15625 2.46875 -4.15625 C 3.203125 -4.15625 3.5625 -3.734375 3.5625 -2.984375 L 3.5625 -2.640625 C 2.84375 -2.609375 0.3125 -2.515625 0.3125 -1.078125 C 0.3125 -0.125 1.5625 0.0625 2.25 0.0625 C 3.046875 0.0625 3.515625 -0.34375 3.734375 -0.765625 Z M 3.5625 -2.328125 L 3.5625 -1.390625 C 3.5625 -0.421875 2.640625 -0.296875 2.390625 -0.296875 C 1.890625 -0.296875 1.484375 -0.640625 1.484375 -1.09375 C 1.484375 -2.15625 3.0625 -2.296875 3.5625 -2.328125 Z M 3.5625 -2.328125 "/>
</symbol>
<symbol overflow="visible" id="glyph0-2">
<path style="stroke:none;" d="M 2.140625 -4 L 2.140625 -6.921875 L 0.375 -6.84375 L 0.375 -6.375 C 0.984375 -6.375 1.0625 -6.375 1.0625 -5.984375 L 1.0625 0 L 1.53125 0 L 2.015625 -0.5625 C 2.09375 -0.484375 2.578125 0.0625 3.46875 0.0625 C 4.953125 0.0625 5.984375 -0.84375 5.984375 -2.21875 C 5.984375 -3.546875 5.046875 -4.484375 3.59375 -4.484375 C 2.875 -4.484375 2.375 -4.203125 2.140625 -4 Z M 2.1875 -0.984375 L 2.1875 -3.484375 C 2.46875 -3.84375 2.9375 -4.125 3.484375 -4.125 C 4.703125 -4.125 4.703125 -2.921875 4.703125 -2.21875 C 4.703125 -1.75 4.703125 -1.203125 4.453125 -0.8125 C 4.15625 -0.40625 3.703125 -0.296875 3.375 -0.296875 C 2.6875 -0.296875 2.296875 -0.84375 2.1875 -0.984375 Z M 2.1875 -0.984375 "/>
</symbol>
<symbol overflow="visible" id="glyph1-0">
<path style="stroke:none;" d=""/>
</symbol>
<symbol overflow="visible" id="glyph1-1">
<path style="stroke:none;" d="M 3.875 -2.765625 L 1.890625 -4.75 C 1.765625 -4.875 1.75 -4.890625 1.671875 -4.890625 C 1.5625 -4.890625 1.46875 -4.8125 1.46875 -4.6875 C 1.46875 -4.625 1.484375 -4.609375 1.59375 -4.5 L 3.59375 -2.5 L 1.59375 -0.484375 C 1.484375 -0.375 1.46875 -0.359375 1.46875 -0.296875 C 1.46875 -0.171875 1.5625 -0.09375 1.671875 -0.09375 C 1.75 -0.09375 1.765625 -0.109375 1.890625 -0.234375 L 3.875 -2.21875 L 5.9375 -0.15625 C 5.953125 -0.140625 6.015625 -0.09375 6.078125 -0.09375 C 6.203125 -0.09375 6.28125 -0.171875 6.28125 -0.296875 C 6.28125 -0.3125 6.28125 -0.34375 6.25 -0.40625 C 6.234375 -0.421875 4.65625 -1.984375 4.15625 -2.5 L 5.984375 -4.3125 C 6.03125 -4.375 6.1875 -4.5 6.234375 -4.5625 C 6.234375 -4.578125 6.28125 -4.625 6.28125 -4.6875 C 6.28125 -4.8125 6.203125 -4.890625 6.078125 -4.890625 C 6 -4.890625 5.96875 -4.859375 5.859375 -4.75 Z M 3.875 -2.765625 "/>
</symbol>
</g>
<clipPath id="clip1">
  <path d="M 28 26 L 135.3125 26 L 135.3125 91.703125 L 28 91.703125 Z M 28 26 "/>
</clipPath>
<clipPath id="clip2">
  <path d="M 19 45 L 96 45 L 96 91.703125 L 19 91.703125 Z M 19 45 "/>
</clipPath>
<clipPath id="clip3">
  <path d="M 60 67 L 97 67 L 97 91.703125 L 60 91.703125 Z M 60 67 "/>
</clipPath>
</defs>
<g id="surface1">
<g clip-path="url(#clip1)" clip-rule="nonzero">
<path style="fill:none;stroke-width:0.3985;stroke-linecap:butt;stroke-linejoin:miter;stroke:rgb(0%,0%,0%);stroke-opacity:1;stroke-miterlimit:10;" d="M -0.00096875 -0.00134375 L 49.096688 -28.345094 L 98.19825 -0.00134375 L 49.096688 28.346312 Z M -0.00096875 -0.00134375 " transform="matrix(1,0,0,-1,34.083,60.026)"/>
</g>
<g clip-path="url(#clip2)" clip-rule="nonzero">
<path style="fill:none;stroke-width:0.99628;stroke-linecap:butt;stroke-linejoin:miter;stroke:rgb(0%,0%,100%);stroke-opacity:1;stroke-miterlimit:10;" d="M -0.00096875 -0.00134375 L 47.670906 -27.520875 " transform="matrix(1,0,0,-1,34.083,60.026)"/>
</g>
<path style=" stroke:none;fill-rule:nonzero;fill:rgb(0%,0%,100%);fill-opacity:1;" d="M 77.582031 81.769531 L 82.078125 87.734375 L 74.660156 86.824219 Z M 77.582031 81.769531 "/>
<g clip-path="url(#clip3)" clip-rule="nonzero">
<path style="fill:none;stroke-width:0.99628;stroke-linecap:butt;stroke-linejoin:miter;stroke:rgb(0%,0%,100%);stroke-opacity:1;stroke-miterlimit:10;" d="M -6.501983 2.919143 L 0.374303 0.00134986 L -6.505113 -2.919418 Z M -6.501983 2.919143 " transform="matrix(0.86601,0.49998,0.49998,-0.86601,81.7533,87.5484)"/>
</g>
<g style="fill:rgb(0%,0%,100%);fill-opacity:1;">
  <use xlink:href="#glyph0-1" x="55.847" y="82.445"/>
</g>
<path style="fill:none;stroke-width:0.99628;stroke-linecap:butt;stroke-linejoin:miter;stroke:rgb(100%,0%,0%);stroke-opacity:1;stroke-miterlimit:10;" d="M -0.00096875 -0.00134375 L 47.670906 27.522094 " transform="matrix(1,0,0,-1,34.083,60.026)"/>
<path style="fill-rule:nonzero;fill:rgb(100%,0%,0%);fill-opacity:1;stroke-width:0.99628;stroke-linecap:butt;stroke-linejoin:miter;stroke:rgb(100%,0%,0%);stroke-opacity:1;stroke-miterlimit:10;" d="M -6.504504 2.920474 L 0.374912 -0.000294358 L -6.503327 -2.921471 Z M -6.504504 2.920474 " transform="matrix(0.86601,-0.49998,-0.49998,-0.86601,81.7533,32.5036)"/>
<g style="fill:rgb(100%,0%,0%);fill-opacity:1;">
  <use xlink:href="#glyph0-2" x="48.449" y="42.035"/>
</g>
<path style="fill:none;stroke-width:0.99628;stroke-linecap:butt;stroke-linejoin:miter;stroke:rgb(0%,50%,0%);stroke-opacity:1;stroke-miterlimit:10;" d="M -0.00096875 -0.00134375 L -0.00096875 55.045531 " transform="matrix(1,0,0,-1,34.083,60.026)"/>
<path style="fill-rule:nonzero;fill:rgb(0%,50%,0%);fill-opacity:1;stroke-width:0.99628;stroke-linecap:butt;stroke-linejoin:miter;stroke:rgb(0%,50%,0%);stroke-opacity:1;stroke-miterlimit:10;" d="M -6.503145 2.918937 L 0.371855 0.00096875 L -6.503145 -2.920906 Z M -6.503145 2.918937 " transform="matrix(0,-1,-1,0,34.083,4.98123)"/>
<g style="fill:rgb(0%,50%,0%);fill-opacity:1;">
  <use xlink:href="#glyph0-1" x="6.154" y="34.724"/>
</g>
<g style="fill:rgb(0%,50%,0%);fill-opacity:1;">
  <use xlink:href="#glyph1-1" x="13.938" y="34.724"/>
</g>
<g style="fill:rgb(0%,50%,0%);fill-opacity:1;">
  <use xlink:href="#glyph0-2" x="23.9" y="34.724"/>
</g>
<path style="fill:none;stroke-width:0.3985;stroke-linecap:butt;stroke-linejoin:miter;stroke:rgb(0%,0%,0%);stroke-opacity:1;stroke-miterlimit:10;" d="M -0.00096875 5.670531 L 4.909188 8.502562 L 4.909188 2.834594 " transform="matrix(1,0,0,-1,34.083,60.026)"/>
<path style="fill:none;stroke-width:0.3985;stroke-linecap:butt;stroke-linejoin:miter;stroke:rgb(0%,0%,0%);stroke-opacity:1;stroke-miterlimit:10;" d="M 4.909188 -2.833375 L 4.909188 2.834594 L -0.00096875 5.670531 " transform="matrix(1,0,0,-1,34.083,60.026)"/>
</g>
</svg>
