<?xml version="1.0" encoding="UTF-8"?>
<svg xmlns="http://www.w3.org/2000/svg" xmlns:xlink="http://www.w3.org/1999/xlink" width="92.826pt" height="92.826pt" viewBox="0 0 92.826 92.826" version="1.1">
<defs>
<clipPath id="clip1">
  <path d="M 0 54 L 92.824219 54 L 92.824219 92.824219 L 0 92.824219 Z M 0 54 "/>
</clipPath>
<clipPath id="clip2">
  <path d="M 0 0 L 39 0 L 39 92.824219 L 0 92.824219 Z M 0 0 "/>
</clipPath>
<clipPath id="clip3">
  <path d="M 54 0 L 92.824219 0 L 92.824219 92.824219 L 54 92.824219 Z M 54 0 "/>
</clipPath>
<clipPath id="clip4">
  <path d="M 0 0 L 92.824219 0 L 92.824219 39 L 0 39 Z M 0 0 "/>
</clipPath>
</defs>
<g id="surface1">
<path style=" stroke:none;fill-rule:nonzero;fill:rgb(100%,100%,100%);fill-opacity:0.5;" d="M 3.035156 89.792969 L 59.726562 89.792969 L 89.792969 59.726562 L 33.097656 59.726562 Z M 3.035156 89.792969 "/>
<g clip-path="url(#clip1)" clip-rule="nonzero">
<path style="fill:none;stroke-width:0.3985;stroke-linecap:butt;stroke-linejoin:miter;stroke:rgb(0%,0%,0%);stroke-opacity:0.5;stroke-miterlimit:10;" d="M -43.377844 -15.033969 L 13.313563 -15.033969 L 43.379969 15.032437 L -13.315344 15.032437 Z M -43.377844 -15.033969 " transform="matrix(1,0,0,-1,46.413,74.759)"/>
</g>
<path style=" stroke:none;fill-rule:nonzero;fill:rgb(100%,100%,100%);fill-opacity:0.5;" d="M 3.035156 89.792969 L 33.097656 59.726562 L 33.097656 3.03125 L 3.035156 33.097656 Z M 3.035156 89.792969 "/>
<g clip-path="url(#clip2)" clip-rule="nonzero">
<path style="fill:none;stroke-width:0.3985;stroke-linecap:butt;stroke-linejoin:miter;stroke:rgb(0%,0%,0%);stroke-opacity:0.5;stroke-miterlimit:10;" d="M -43.377844 -15.033969 L -13.315344 15.032437 L -13.315344 71.72775 L -43.377844 41.661344 Z M -43.377844 -15.033969 " transform="matrix(1,0,0,-1,46.413,74.759)"/>
</g>
<path style="fill-rule:nonzero;fill:rgb(100%,100%,100%);fill-opacity:0.5;stroke-width:0.3985;stroke-linecap:butt;stroke-linejoin:miter;stroke:rgb(0%,0%,0%);stroke-opacity:0.5;stroke-miterlimit:10;" d="M 43.379969 15.032437 L -13.315344 15.032437 L -13.315344 71.72775 L 43.379969 71.72775 Z M 43.379969 15.032437 " transform="matrix(1,0,0,-1,46.413,74.759)"/>
<path style="fill-rule:nonzero;fill:rgb(100%,100%,100%);fill-opacity:0.5;stroke-width:0.3985;stroke-linecap:butt;stroke-linejoin:miter;stroke:rgb(0%,0%,0%);stroke-opacity:0.5;stroke-miterlimit:10;" d="M -43.377844 -15.033969 L 13.313563 -15.033969 L 13.313563 41.661344 L -43.377844 41.661344 Z M -43.377844 -15.033969 " transform="matrix(1,0,0,-1,46.413,74.759)"/>
<path style=" stroke:none;fill-rule:nonzero;fill:rgb(100%,100%,100%);fill-opacity:0.5;" d="M 59.726562 89.792969 L 89.792969 59.726562 L 89.792969 3.03125 L 59.726562 33.097656 Z M 59.726562 89.792969 "/>
<g clip-path="url(#clip3)" clip-rule="nonzero">
<path style="fill:none;stroke-width:0.3985;stroke-linecap:butt;stroke-linejoin:miter;stroke:rgb(0%,0%,0%);stroke-opacity:0.5;stroke-miterlimit:10;" d="M 13.313563 -15.033969 L 43.379969 15.032437 L 43.379969 71.72775 L 13.313563 41.661344 Z M 13.313563 -15.033969 " transform="matrix(1,0,0,-1,46.413,74.759)"/>
</g>
<path style=" stroke:none;fill-rule:nonzero;fill:rgb(0%,0%,100%);fill-opacity:0.25;" d="M 3.035156 33.097656 L 59.726562 33.097656 L 89.792969 3.03125 L 33.097656 3.03125 Z M 3.035156 33.097656 "/>
<g clip-path="url(#clip4)" clip-rule="nonzero">
<path style="fill:none;stroke-width:0.3985;stroke-linecap:butt;stroke-linejoin:miter;stroke:rgb(0%,0%,0%);stroke-opacity:0.25;stroke-miterlimit:10;" d="M -43.377844 41.661344 L 13.313563 41.661344 L 43.379969 71.72775 L -13.315344 71.72775 Z M -43.377844 41.661344 " transform="matrix(1,0,0,-1,46.413,74.759)"/>
</g>
</g>
</svg>
