<?xml version="1.0" encoding="UTF-8"?>
<svg xmlns="http://www.w3.org/2000/svg" xmlns:xlink="http://www.w3.org/1999/xlink" width="253.105pt" height="216.656pt" viewBox="0 0 253.105 216.656" version="1.1">
<defs>
<g>
<symbol overflow="visible" id="glyph0-0">
<path style="stroke:none;" d=""/>
</symbol>
<symbol overflow="visible" id="glyph0-1">
<path style="stroke:none;" d="M 5.046875 -3.75 C 5.109375 -3.890625 5.140625 -3.953125 5.78125 -3.953125 L 5.78125 -4.421875 C 5.53125 -4.40625 5.25 -4.390625 5 -4.390625 C 4.75 -4.390625 4.296875 -4.421875 4.09375 -4.421875 L 4.09375 -3.953125 C 4.28125 -3.953125 4.5625 -3.921875 4.5625 -3.84375 C 4.5625 -3.84375 4.5625 -3.8125 4.515625 -3.734375 L 3.359375 -1.234375 L 2.09375 -3.953125 L 2.625 -3.953125 L 2.625 -4.421875 C 2.296875 -4.40625 1.40625 -4.390625 1.390625 -4.390625 C 1.109375 -4.390625 0.671875 -4.421875 0.265625 -4.421875 L 0.265625 -3.953125 L 0.890625 -3.953125 L 2.640625 -0.203125 C 2.765625 0.046875 2.890625 0.046875 3.015625 0.046875 C 3.1875 0.046875 3.296875 0.015625 3.390625 -0.203125 Z M 5.046875 -3.75 "/>
</symbol>
<symbol overflow="visible" id="glyph0-2">
<path style="stroke:none;" d="M 2.234375 -4.484375 L 0.5 -4.40625 L 0.5 -3.9375 C 1.09375 -3.9375 1.15625 -3.9375 1.15625 -3.546875 L 1.15625 -0.46875 L 0.46875 -0.46875 L 0.46875 0 C 0.78125 -0.015625 1.265625 -0.03125 1.6875 -0.03125 C 1.984375 -0.03125 2.5 -0.015625 2.84375 0 L 2.84375 -0.46875 L 2.234375 -0.46875 Z M 2.328125 -6.15625 C 2.328125 -6.59375 1.96875 -6.921875 1.5625 -6.921875 C 1.125 -6.921875 0.78125 -6.578125 0.78125 -6.15625 C 0.78125 -5.71875 1.125 -5.375 1.5625 -5.375 C 1.96875 -5.375 2.328125 -5.71875 2.328125 -6.15625 Z M 2.328125 -6.15625 "/>
</symbol>
<symbol overflow="visible" id="glyph1-0">
<path style="stroke:none;" d=""/>
</symbol>
<symbol overflow="visible" id="glyph1-1">
<path style="stroke:none;" d="M 2.328125 -4.4375 C 2.328125 -4.625 2.328125 -4.625 2.125 -4.625 C 1.671875 -4.1875 1.046875 -4.1875 0.765625 -4.1875 L 0.765625 -3.9375 C 0.921875 -3.9375 1.390625 -3.9375 1.765625 -4.125 L 1.765625 -0.578125 C 1.765625 -0.34375 1.765625 -0.25 1.078125 -0.25 L 0.8125 -0.25 L 0.8125 0 C 0.9375 0 1.796875 -0.03125 2.046875 -0.03125 C 2.265625 -0.03125 3.140625 0 3.296875 0 L 3.296875 -0.25 L 3.03125 -0.25 C 2.328125 -0.25 2.328125 -0.34375 2.328125 -0.578125 Z M 2.328125 -4.4375 "/>
</symbol>
<symbol overflow="visible" id="glyph1-2">
<path style="stroke:none;" d="M 3.515625 -1.265625 L 3.28125 -1.265625 C 3.265625 -1.109375 3.1875 -0.703125 3.09375 -0.640625 C 3.046875 -0.59375 2.515625 -0.59375 2.40625 -0.59375 L 1.125 -0.59375 C 1.859375 -1.234375 2.109375 -1.4375 2.515625 -1.765625 C 3.03125 -2.171875 3.515625 -2.609375 3.515625 -3.265625 C 3.515625 -4.109375 2.78125 -4.625 1.890625 -4.625 C 1.03125 -4.625 0.4375 -4.015625 0.4375 -3.375 C 0.4375 -3.03125 0.734375 -2.984375 0.8125 -2.984375 C 0.96875 -2.984375 1.171875 -3.109375 1.171875 -3.359375 C 1.171875 -3.484375 1.125 -3.734375 0.765625 -3.734375 C 0.984375 -4.21875 1.453125 -4.375 1.78125 -4.375 C 2.484375 -4.375 2.84375 -3.828125 2.84375 -3.265625 C 2.84375 -2.65625 2.40625 -2.1875 2.1875 -1.9375 L 0.515625 -0.265625 C 0.4375 -0.203125 0.4375 -0.1875 0.4375 0 L 3.3125 0 Z M 3.515625 -1.265625 "/>
</symbol>
<symbol overflow="visible" id="glyph1-3">
<path style="stroke:none;" d="M 1.90625 -2.328125 C 2.453125 -2.328125 2.84375 -1.953125 2.84375 -1.203125 C 2.84375 -0.34375 2.328125 -0.078125 1.9375 -0.078125 C 1.65625 -0.078125 1.03125 -0.15625 0.75 -0.578125 C 1.078125 -0.578125 1.15625 -0.8125 1.15625 -0.96875 C 1.15625 -1.1875 0.984375 -1.34375 0.765625 -1.34375 C 0.578125 -1.34375 0.375 -1.21875 0.375 -0.9375 C 0.375 -0.28125 1.09375 0.140625 1.9375 0.140625 C 2.90625 0.140625 3.578125 -0.515625 3.578125 -1.203125 C 3.578125 -1.75 3.140625 -2.296875 2.375 -2.453125 C 3.09375 -2.71875 3.359375 -3.234375 3.359375 -3.671875 C 3.359375 -4.21875 2.734375 -4.625 1.953125 -4.625 C 1.1875 -4.625 0.59375 -4.25 0.59375 -3.6875 C 0.59375 -3.453125 0.75 -3.328125 0.953125 -3.328125 C 1.171875 -3.328125 1.3125 -3.484375 1.3125 -3.671875 C 1.3125 -3.875 1.171875 -4.03125 0.953125 -4.046875 C 1.203125 -4.34375 1.671875 -4.421875 1.9375 -4.421875 C 2.25 -4.421875 2.6875 -4.265625 2.6875 -3.671875 C 2.6875 -3.375 2.59375 -3.046875 2.40625 -2.84375 C 2.1875 -2.578125 1.984375 -2.5625 1.640625 -2.53125 C 1.46875 -2.515625 1.453125 -2.515625 1.421875 -2.515625 C 1.40625 -2.515625 1.34375 -2.5 1.34375 -2.421875 C 1.34375 -2.328125 1.40625 -2.328125 1.53125 -2.328125 Z M 1.90625 -2.328125 "/>
</symbol>
<symbol overflow="visible" id="glyph1-4">
<path style="stroke:none;" d="M 1.046875 -2.28125 C 1.046875 -2.84375 1.09375 -3.359375 1.359375 -3.796875 C 1.59375 -4.171875 1.96875 -4.421875 2.421875 -4.421875 C 2.625 -4.421875 2.90625 -4.375 3.046875 -4.1875 C 2.875 -4.171875 2.71875 -4.046875 2.71875 -3.84375 C 2.71875 -3.671875 2.84375 -3.515625 3.046875 -3.515625 C 3.265625 -3.515625 3.390625 -3.65625 3.390625 -3.859375 C 3.390625 -4.265625 3.09375 -4.625 2.40625 -4.625 C 1.40625 -4.625 0.375 -3.703125 0.375 -2.203125 C 0.375 -0.40625 1.21875 0.140625 2 0.140625 C 2.84375 0.140625 3.578125 -0.515625 3.578125 -1.421875 C 3.578125 -2.3125 2.875 -2.96875 2.0625 -2.96875 C 1.5 -2.96875 1.203125 -2.59375 1.046875 -2.28125 Z M 2 -0.078125 C 1.640625 -0.078125 1.375 -0.28125 1.21875 -0.59375 C 1.125 -0.796875 1.0625 -1.15625 1.0625 -1.5625 C 1.0625 -2.25 1.46875 -2.765625 2.03125 -2.765625 C 2.34375 -2.765625 2.5625 -2.640625 2.734375 -2.390625 C 2.90625 -2.125 2.90625 -1.828125 2.90625 -1.421875 C 2.90625 -1.03125 2.90625 -0.734375 2.71875 -0.453125 C 2.5625 -0.21875 2.328125 -0.078125 2 -0.078125 Z M 2 -0.078125 "/>
</symbol>
<symbol overflow="visible" id="glyph1-5">
<path style="stroke:none;" d="M 1.078125 -3.890625 C 1.4375 -3.796875 1.640625 -3.796875 1.75 -3.796875 C 2.671875 -3.796875 3.21875 -4.421875 3.21875 -4.53125 C 3.21875 -4.609375 3.171875 -4.625 3.140625 -4.625 C 3.125 -4.625 3.109375 -4.625 3.078125 -4.609375 C 2.90625 -4.546875 2.546875 -4.40625 2.03125 -4.40625 C 1.828125 -4.40625 1.46875 -4.421875 1.015625 -4.59375 C 0.9375 -4.625 0.921875 -4.625 0.921875 -4.625 C 0.828125 -4.625 0.828125 -4.546875 0.828125 -4.4375 L 0.828125 -2.390625 C 0.828125 -2.265625 0.828125 -2.1875 0.9375 -2.1875 C 1 -2.1875 1.015625 -2.1875 1.078125 -2.28125 C 1.375 -2.65625 1.8125 -2.71875 2.046875 -2.71875 C 2.46875 -2.71875 2.65625 -2.390625 2.6875 -2.328125 C 2.8125 -2.09375 2.859375 -1.828125 2.859375 -1.421875 C 2.859375 -1.21875 2.859375 -0.8125 2.640625 -0.5 C 2.46875 -0.25 2.171875 -0.078125 1.828125 -0.078125 C 1.375 -0.078125 0.90625 -0.328125 0.734375 -0.796875 C 1 -0.78125 1.140625 -0.953125 1.140625 -1.140625 C 1.140625 -1.4375 0.875 -1.484375 0.78125 -1.484375 C 0.78125 -1.484375 0.4375 -1.484375 0.4375 -1.109375 C 0.4375 -0.484375 1.015625 0.140625 1.84375 0.140625 C 2.734375 0.140625 3.515625 -0.515625 3.515625 -1.40625 C 3.515625 -2.1875 2.921875 -2.90625 2.0625 -2.90625 C 1.75 -2.90625 1.390625 -2.84375 1.078125 -2.578125 Z M 1.078125 -3.890625 "/>
</symbol>
</g>
</defs>
<g id="surface1">
<path style="fill:none;stroke-width:0.3985;stroke-linecap:butt;stroke-linejoin:miter;stroke:rgb(0%,0%,0%);stroke-opacity:1;stroke-dasharray:2.98883,2.98883;stroke-miterlimit:10;" d="M -28.347344 -56.694969 L 85.039375 56.69175 L -56.695 141.734719 Z M -28.347344 -56.694969 " transform="matrix(1,0,0,-1,79.195,150.848)"/>
<path style="fill-rule:nonzero;fill:rgb(89.99939%,89.99939%,100%);fill-opacity:1;stroke-width:0.3985;stroke-linecap:butt;stroke-linejoin:miter;stroke:rgb(0%,0%,0%);stroke-opacity:1;stroke-miterlimit:10;" d="M 0.0003125 0.00034375 L 28.347969 0.00034375 L 85.039375 56.69175 L 0.0003125 107.715188 Z M 0.0003125 0.00034375 " transform="matrix(1,0,0,-1,79.195,150.848)"/>
<path style="fill:none;stroke-width:1.99255;stroke-linecap:butt;stroke-linejoin:miter;stroke:rgb(0%,0%,0%);stroke-opacity:1;stroke-miterlimit:10;" d="M 0.0003125 0.00034375 L 0.0003125 113.387063 L 170.082344 113.387063 L 170.082344 0.00034375 Z M 0.0003125 0.00034375 " transform="matrix(1,0,0,-1,79.195,150.848)"/>
<path style=" stroke:none;fill-rule:nonzero;fill:rgb(0%,0%,0%);fill-opacity:1;" d="M 52.960938 207.542969 C 52.960938 206.375 52.015625 205.429688 50.847656 205.429688 C 49.679688 205.429688 48.734375 206.375 48.734375 207.542969 C 48.734375 208.707031 49.679688 209.65625 50.847656 209.65625 C 52.015625 209.65625 52.960938 208.707031 52.960938 207.542969 Z M 52.960938 207.542969 "/>
<g style="fill:rgb(0%,0%,0%);fill-opacity:1;">
  <use xlink:href="#glyph0-1" x="34.501" y="209.007"/>
</g>
<g style="fill:rgb(0%,0%,0%);fill-opacity:1;">
  <use xlink:href="#glyph1-1" x="40.548" y="210.502"/>
</g>
<path style=" stroke:none;fill-rule:nonzero;fill:rgb(0%,0%,0%);fill-opacity:1;" d="M 166.347656 94.15625 C 166.347656 92.988281 165.402344 92.039062 164.234375 92.039062 C 163.066406 92.039062 162.121094 92.988281 162.121094 94.15625 C 162.121094 95.320312 163.066406 96.269531 164.234375 96.269531 C 165.402344 96.269531 166.347656 95.320312 166.347656 94.15625 Z M 166.347656 94.15625 "/>
<g style="fill:rgb(0%,0%,0%);fill-opacity:1;">
  <use xlink:href="#glyph0-1" x="170.066" y="95.622"/>
</g>
<g style="fill:rgb(0%,0%,0%);fill-opacity:1;">
  <use xlink:href="#glyph1-2" x="176.113" y="97.116"/>
</g>
<path style=" stroke:none;fill-rule:nonzero;fill:rgb(0%,0%,0%);fill-opacity:1;" d="M 24.613281 9.113281 C 24.613281 7.945312 23.667969 7 22.5 7 C 21.335938 7 20.386719 7.945312 20.386719 9.113281 C 20.386719 10.28125 21.335938 11.226562 22.5 11.226562 C 23.667969 11.226562 24.613281 10.28125 24.613281 9.113281 Z M 24.613281 9.113281 "/>
<g style="fill:rgb(0%,0%,0%);fill-opacity:1;">
  <use xlink:href="#glyph0-1" x="6.154" y="10.582"/>
</g>
<g style="fill:rgb(0%,0%,0%);fill-opacity:1;">
  <use xlink:href="#glyph1-3" x="12.201" y="12.077"/>
</g>
<path style=" stroke:none;fill-rule:nonzero;fill:rgb(0%,0%,0%);fill-opacity:1;" d="M 109.65625 150.847656 C 109.65625 149.679688 108.710938 148.734375 107.542969 148.734375 C 106.375 148.734375 105.429688 149.679688 105.429688 150.847656 C 105.429688 152.015625 106.375 152.960938 107.542969 152.960938 C 108.710938 152.960938 109.65625 152.015625 109.65625 150.847656 Z M 109.65625 150.847656 "/>
<g style="fill:rgb(0%,0%,0%);fill-opacity:1;">
  <use xlink:href="#glyph0-2" x="112.696" y="162.92"/>
</g>
<g style="fill:rgb(0%,0%,0%);fill-opacity:1;">
  <use xlink:href="#glyph1-2" x="115.878" y="164.415"/>
</g>
<path style=" stroke:none;fill-rule:nonzero;fill:rgb(0%,0%,0%);fill-opacity:1;" d="M 81.308594 43.132812 C 81.308594 41.964844 80.363281 41.015625 79.195312 41.015625 C 78.027344 41.015625 77.082031 41.964844 77.082031 43.132812 C 77.082031 44.296875 78.027344 45.246094 79.195312 45.246094 C 80.363281 45.246094 81.308594 44.296875 81.308594 43.132812 Z M 81.308594 43.132812 "/>
<g style="fill:rgb(0%,0%,0%);fill-opacity:1;">
  <use xlink:href="#glyph0-2" x="65.713" y="45.844"/>
</g>
<g style="fill:rgb(0%,0%,0%);fill-opacity:1;">
  <use xlink:href="#glyph1-4" x="68.895" y="47.338"/>
</g>
<path style=" stroke:none;fill-rule:nonzero;fill:rgb(0%,0%,0%);fill-opacity:1;" d="M 81.308594 150.847656 C 81.308594 149.679688 80.363281 148.734375 79.195312 148.734375 C 78.027344 148.734375 77.082031 149.679688 77.082031 150.847656 C 77.082031 152.015625 78.027344 152.960938 79.195312 152.960938 C 80.363281 152.960938 81.308594 152.015625 81.308594 150.847656 Z M 81.308594 150.847656 "/>
<g style="fill:rgb(0%,0%,0%);fill-opacity:1;">
  <use xlink:href="#glyph0-2" x="65.712" y="153.56"/>
</g>
<g style="fill:rgb(0%,0%,0%);fill-opacity:1;">
  <use xlink:href="#glyph1-5" x="68.894" y="155.054"/>
</g>
</g>
</svg>
