<?xml version="1.0" encoding="UTF-8"?>
<svg xmlns="http://www.w3.org/2000/svg" xmlns:xlink="http://www.w3.org/1999/xlink" width="213.785pt" height="160.956pt" viewBox="0 0 213.785 160.956" version="1.1">
<defs>
<clipPath id="clip1">
  <path d="M 0 31 L 213.785156 31 L 213.785156 130 L 0 130 Z M 0 31 "/>
</clipPath>
<clipPath id="clip2">
  <path d="M 23 0 L 190 0 L 190 160.957031 L 23 160.957031 Z M 23 0 "/>
</clipPath>
</defs>
<g id="surface1">
<path style=" stroke:none;fill-rule:nonzero;fill:rgb(79.998779%,79.998779%,100%);fill-opacity:0.5;" d="M 3.03125 94.152344 L 112.558594 123.496094 L 210.753906 66.804688 L 101.230469 37.457031 Z M 3.03125 94.152344 "/>
<g clip-path="url(#clip1)" clip-rule="nonzero">
<path style="fill:none;stroke-width:0.3985;stroke-linecap:butt;stroke-linejoin:miter;stroke:rgb(0%,0%,100%);stroke-opacity:0.5;stroke-miterlimit:10;" d="M -54.76375 14.671656 L 54.763594 -14.672094 L 152.958906 42.019313 L 43.435469 71.366969 Z M -54.76375 14.671656 " transform="matrix(1,0,0,-1,57.795,108.824)"/>
</g>
<path style=" stroke:none;fill-rule:nonzero;fill:rgb(100%,79.998779%,79.998779%);fill-opacity:0.5;" d="M 29.449219 59.726562 L 86.140625 157.921875 L 184.339844 101.230469 L 127.644531 3.03125 Z M 29.449219 59.726562 "/>
<g clip-path="url(#clip2)" clip-rule="nonzero">
<path style="fill:none;stroke-width:0.3985;stroke-linecap:butt;stroke-linejoin:miter;stroke:rgb(100%,0%,0%);stroke-opacity:0.5;stroke-miterlimit:10;" d="M -28.345781 49.097438 L 28.345625 -49.097875 L 126.544844 7.593531 L 69.849531 105.79275 Z M -28.345781 49.097438 " transform="matrix(1,0,0,-1,57.795,108.824)"/>
</g>
<path style="fill:none;stroke-width:0.3985;stroke-linecap:butt;stroke-linejoin:miter;stroke:rgb(0%,0%,0%);stroke-opacity:1;stroke-dasharray:2.98883,2.98883;stroke-miterlimit:10;" d="M 0.001875 -0.00021875 L 98.197187 56.695094 " transform="matrix(1,0,0,-1,57.795,108.824)"/>
</g>
</svg>
