<?xml version="1.0" encoding="UTF-8"?>
<svg xmlns="http://www.w3.org/2000/svg" xmlns:xlink="http://www.w3.org/1999/xlink" width="93.933pt" height="219.679pt" viewBox="0 0 93.933 219.679" version="1.1">
<defs>
<g>
<symbol overflow="visible" id="glyph0-0">
<path style="stroke:none;" d=""/>
</symbol>
<symbol overflow="visible" id="glyph0-1">
<path style="stroke:none;" d="M 3.328125 -3.015625 C 3.390625 -3.265625 3.625 -4.1875 4.3125 -4.1875 C 4.359375 -4.1875 4.609375 -4.1875 4.8125 -4.0625 C 4.53125 -4 4.34375 -3.765625 4.34375 -3.515625 C 4.34375 -3.359375 4.453125 -3.171875 4.71875 -3.171875 C 4.9375 -3.171875 5.25 -3.34375 5.25 -3.75 C 5.25 -4.265625 4.671875 -4.40625 4.328125 -4.40625 C 3.75 -4.40625 3.40625 -3.875 3.28125 -3.65625 C 3.03125 -4.3125 2.5 -4.40625 2.203125 -4.40625 C 1.171875 -4.40625 0.59375 -3.125 0.59375 -2.875 C 0.59375 -2.765625 0.703125 -2.765625 0.71875 -2.765625 C 0.796875 -2.765625 0.828125 -2.796875 0.84375 -2.875 C 1.1875 -3.9375 1.84375 -4.1875 2.1875 -4.1875 C 2.375 -4.1875 2.71875 -4.09375 2.71875 -3.515625 C 2.71875 -3.203125 2.546875 -2.546875 2.1875 -1.140625 C 2.03125 -0.53125 1.671875 -0.109375 1.234375 -0.109375 C 1.171875 -0.109375 0.953125 -0.109375 0.734375 -0.234375 C 0.984375 -0.296875 1.203125 -0.5 1.203125 -0.78125 C 1.203125 -1.046875 0.984375 -1.125 0.84375 -1.125 C 0.53125 -1.125 0.296875 -0.875 0.296875 -0.546875 C 0.296875 -0.09375 0.78125 0.109375 1.21875 0.109375 C 1.890625 0.109375 2.25 -0.59375 2.265625 -0.640625 C 2.390625 -0.28125 2.75 0.109375 3.34375 0.109375 C 4.375 0.109375 4.9375 -1.171875 4.9375 -1.421875 C 4.9375 -1.53125 4.859375 -1.53125 4.828125 -1.53125 C 4.734375 -1.53125 4.71875 -1.484375 4.6875 -1.421875 C 4.359375 -0.34375 3.6875 -0.109375 3.375 -0.109375 C 2.984375 -0.109375 2.828125 -0.421875 2.828125 -0.765625 C 2.828125 -0.984375 2.875 -1.203125 2.984375 -1.640625 Z M 3.328125 -3.015625 "/>
</symbol>
<symbol overflow="visible" id="glyph0-2">
<path style="stroke:none;" d="M 4.84375 -3.796875 C 4.890625 -3.9375 4.890625 -3.953125 4.890625 -4.03125 C 4.890625 -4.203125 4.75 -4.296875 4.59375 -4.296875 C 4.5 -4.296875 4.34375 -4.234375 4.25 -4.09375 C 4.234375 -4.03125 4.140625 -3.734375 4.109375 -3.546875 C 4.03125 -3.296875 3.96875 -3.015625 3.90625 -2.75 L 3.453125 -0.953125 C 3.421875 -0.8125 2.984375 -0.109375 2.328125 -0.109375 C 1.828125 -0.109375 1.71875 -0.546875 1.71875 -0.921875 C 1.71875 -1.375 1.890625 -2 2.21875 -2.875 C 2.375 -3.28125 2.421875 -3.390625 2.421875 -3.59375 C 2.421875 -4.03125 2.109375 -4.40625 1.609375 -4.40625 C 0.65625 -4.40625 0.296875 -2.953125 0.296875 -2.875 C 0.296875 -2.765625 0.390625 -2.765625 0.40625 -2.765625 C 0.515625 -2.765625 0.515625 -2.796875 0.5625 -2.953125 C 0.84375 -3.890625 1.234375 -4.1875 1.578125 -4.1875 C 1.65625 -4.1875 1.828125 -4.1875 1.828125 -3.875 C 1.828125 -3.625 1.71875 -3.359375 1.65625 -3.171875 C 1.25 -2.109375 1.078125 -1.546875 1.078125 -1.078125 C 1.078125 -0.1875 1.703125 0.109375 2.296875 0.109375 C 2.6875 0.109375 3.015625 -0.0625 3.296875 -0.34375 C 3.171875 0.171875 3.046875 0.671875 2.65625 1.203125 C 2.390625 1.53125 2.015625 1.828125 1.5625 1.828125 C 1.421875 1.828125 0.96875 1.796875 0.796875 1.40625 C 0.953125 1.40625 1.09375 1.40625 1.21875 1.28125 C 1.328125 1.203125 1.421875 1.0625 1.421875 0.875 C 1.421875 0.5625 1.15625 0.53125 1.0625 0.53125 C 0.828125 0.53125 0.5 0.6875 0.5 1.171875 C 0.5 1.671875 0.9375 2.046875 1.5625 2.046875 C 2.578125 2.046875 3.609375 1.140625 3.890625 0.015625 Z M 4.84375 -3.796875 "/>
</symbol>
<symbol overflow="visible" id="glyph0-3">
<path style="stroke:none;" d="M 1.328125 -0.828125 C 1.859375 -1.40625 2.15625 -1.65625 2.515625 -1.96875 C 2.515625 -1.96875 3.125 -2.5 3.484375 -2.859375 C 4.4375 -3.78125 4.65625 -4.265625 4.65625 -4.3125 C 4.65625 -4.40625 4.5625 -4.40625 4.546875 -4.40625 C 4.46875 -4.40625 4.453125 -4.390625 4.390625 -4.296875 C 4.09375 -3.8125 3.890625 -3.65625 3.65625 -3.65625 C 3.40625 -3.65625 3.296875 -3.8125 3.140625 -3.984375 C 2.953125 -4.203125 2.78125 -4.40625 2.453125 -4.40625 C 1.703125 -4.40625 1.25 -3.484375 1.25 -3.265625 C 1.25 -3.21875 1.28125 -3.15625 1.359375 -3.15625 C 1.453125 -3.15625 1.46875 -3.203125 1.5 -3.265625 C 1.6875 -3.734375 2.265625 -3.734375 2.34375 -3.734375 C 2.546875 -3.734375 2.734375 -3.671875 2.96875 -3.59375 C 3.375 -3.4375 3.484375 -3.4375 3.734375 -3.4375 C 3.375 -3.015625 2.546875 -2.296875 2.359375 -2.140625 L 1.453125 -1.296875 C 0.78125 -0.625 0.421875 -0.0625 0.421875 0.015625 C 0.421875 0.109375 0.53125 0.109375 0.546875 0.109375 C 0.625 0.109375 0.640625 0.09375 0.703125 -0.015625 C 0.9375 -0.375 1.234375 -0.640625 1.5625 -0.640625 C 1.78125 -0.640625 1.890625 -0.546875 2.140625 -0.265625 C 2.296875 -0.046875 2.484375 0.109375 2.765625 0.109375 C 3.765625 0.109375 4.34375 -1.15625 4.34375 -1.421875 C 4.34375 -1.46875 4.296875 -1.53125 4.21875 -1.53125 C 4.125 -1.53125 4.109375 -1.46875 4.078125 -1.390625 C 3.84375 -0.75 3.203125 -0.5625 2.875 -0.5625 C 2.6875 -0.5625 2.5 -0.625 2.296875 -0.6875 C 1.953125 -0.8125 1.796875 -0.859375 1.59375 -0.859375 C 1.578125 -0.859375 1.421875 -0.859375 1.328125 -0.828125 Z M 1.328125 -0.828125 "/>
</symbol>
<symbol overflow="visible" id="glyph1-0">
<path style="stroke:none;" d=""/>
</symbol>
<symbol overflow="visible" id="glyph1-1">
<path style="stroke:none;" d="M 4.171875 -0.421875 L 4.171875 0.0625 L 5.984375 0 L 5.984375 -0.46875 C 5.375 -0.46875 5.296875 -0.46875 5.296875 -0.859375 L 5.296875 -6.921875 L 3.53125 -6.84375 L 3.53125 -6.375 C 4.15625 -6.375 4.234375 -6.375 4.234375 -5.984375 L 4.234375 -4.03125 C 3.734375 -4.421875 3.203125 -4.484375 2.875 -4.484375 C 1.421875 -4.484375 0.375 -3.609375 0.375 -2.203125 C 0.375 -0.890625 1.296875 0.0625 2.765625 0.0625 C 3.375 0.0625 3.859375 -0.171875 4.171875 -0.421875 Z M 4.171875 -3.515625 L 4.171875 -1.03125 C 4.03125 -0.84375 3.625 -0.296875 2.875 -0.296875 C 1.65625 -0.296875 1.65625 -1.5 1.65625 -2.203125 C 1.65625 -2.6875 1.65625 -3.21875 1.90625 -3.609375 C 2.203125 -4.03125 2.671875 -4.125 2.984375 -4.125 C 3.546875 -4.125 3.953125 -3.8125 4.171875 -3.515625 Z M 4.171875 -3.515625 "/>
</symbol>
<symbol overflow="visible" id="glyph1-2">
<path style="stroke:none;" d="M 2.1875 -3.28125 C 2.1875 -3.46875 2.203125 -3.484375 2.34375 -3.625 C 2.734375 -4.03125 3.265625 -4.09375 3.484375 -4.09375 C 4.140625 -4.09375 4.703125 -3.484375 4.703125 -2.21875 C 4.703125 -0.8125 4 -0.296875 3.359375 -0.296875 C 3.21875 -0.296875 2.75 -0.296875 2.296875 -0.84375 C 2.1875 -0.96875 2.1875 -0.984375 2.1875 -1.171875 Z M 2.1875 -0.390625 C 2.625 -0.046875 3.0625 0.0625 3.46875 0.0625 C 4.96875 0.0625 5.984375 -0.84375 5.984375 -2.21875 C 5.984375 -3.546875 5.078125 -4.484375 3.640625 -4.484375 C 2.890625 -4.484375 2.359375 -4.171875 2.140625 -4 L 2.140625 -4.484375 L 0.375 -4.40625 L 0.375 -3.9375 C 0.984375 -3.9375 1.0625 -3.9375 1.0625 -3.5625 L 1.0625 1.46875 L 0.375 1.46875 L 0.375 1.9375 C 0.640625 1.921875 1.25 1.90625 1.625 1.90625 C 2.015625 1.90625 2.609375 1.921875 2.875 1.9375 L 2.875 1.46875 L 2.1875 1.46875 Z M 2.1875 -0.390625 "/>
</symbol>
</g>
<clipPath id="clip1">
  <path d="M 4 159 L 93 159 L 93 219.679688 L 4 219.679688 Z M 4 159 "/>
</clipPath>
</defs>
<g id="surface1">
<g clip-path="url(#clip1)" clip-rule="nonzero">
<path style="fill:none;stroke-width:0.99628;stroke-linecap:butt;stroke-linejoin:miter;stroke:rgb(0%,0%,0%);stroke-opacity:1;stroke-miterlimit:10;" d="M -0.0015625 -0.00128125 L 59.939844 -34.60675 " transform="matrix(1,0,0,-1,18.65,173.112)"/>
</g>
<path style="fill-rule:nonzero;fill:rgb(0%,0%,0%);fill-opacity:1;stroke-width:0.99628;stroke-linecap:butt;stroke-linejoin:round;stroke:rgb(0%,0%,0%);stroke-opacity:1;stroke-miterlimit:10;" d="M 1.154573 -0.00115644 C -0.28915 0.288475 -1.732702 0.866885 -3.466469 1.877657 C -1.732873 0.578106 -1.733555 -0.577009 -3.466733 -1.879849 C -1.733725 -0.865787 -0.289491 -0.289083 1.154573 -0.00115644 Z M 1.154573 -0.00115644 " transform="matrix(0.86601,0.49998,0.49998,-0.86601,78.59055,207.71861)"/>
<g style="fill:rgb(0%,0%,0%);fill-opacity:1;">
  <use xlink:href="#glyph0-1" x="82.085" y="213.525"/>
</g>
<path style="fill:none;stroke-width:0.99628;stroke-linecap:butt;stroke-linejoin:miter;stroke:rgb(0%,0%,0%);stroke-opacity:1;stroke-miterlimit:10;" d="M -0.0015625 -0.00128125 L 59.939844 34.608094 " transform="matrix(1,0,0,-1,18.65,173.112)"/>
<path style="fill-rule:nonzero;fill:rgb(0%,0%,0%);fill-opacity:1;stroke-width:0.99628;stroke-linecap:butt;stroke-linejoin:round;stroke:rgb(0%,0%,0%);stroke-opacity:1;stroke-miterlimit:10;" d="M 1.155245 0.00232019 C -0.288819 0.290246 -1.733054 0.866951 -3.468014 1.87763 C -1.732883 0.578172 -1.732201 -0.576942 -3.465797 -1.876493 C -1.732031 -0.865721 -0.288478 -0.287311 1.155245 0.00232019 Z M 1.155245 0.00232019 " transform="matrix(0.86601,-0.49998,-0.49998,-0.86601,78.59055,138.50539)"/>
<g style="fill:rgb(0%,0%,0%);fill-opacity:1;">
  <use xlink:href="#glyph0-2" x="82.311" y="136.021"/>
</g>
<path style="fill:none;stroke-width:0.99628;stroke-linecap:butt;stroke-linejoin:miter;stroke:rgb(0%,0%,0%);stroke-opacity:1;stroke-miterlimit:10;" d="M -0.0015625 -0.00128125 L -0.0015625 69.213562 " transform="matrix(1,0,0,-1,18.65,173.112)"/>
<path style="fill-rule:nonzero;fill:rgb(0%,0%,0%);fill-opacity:1;stroke-width:0.99628;stroke-linecap:butt;stroke-linejoin:round;stroke:rgb(0%,0%,0%);stroke-opacity:1;stroke-miterlimit:10;" d="M 1.156632 0.0015625 C -0.28868 0.290625 -1.733993 0.864844 -3.468368 1.876563 C -1.733993 0.579688 -1.733993 -0.576562 -3.468368 -1.877344 C -1.733993 -0.865625 -0.28868 -0.2875 1.156632 0.0015625 Z M 1.156632 0.0015625 " transform="matrix(0,-1,-1,0,18.65,103.89882)"/>
<g style="fill:rgb(0%,0%,0%);fill-opacity:1;">
  <use xlink:href="#glyph0-3" x="9.444" y="99.014"/>
</g>
<path style="fill:none;stroke-width:0.3985;stroke-linecap:butt;stroke-linejoin:miter;stroke:rgb(100%,0%,0%);stroke-opacity:1;stroke-miterlimit:10;" d="M -0.0015625 -28.345031 L -0.0015625 170.08075 " transform="matrix(1,0,0,-1,18.65,173.112)"/>
<path style="fill:none;stroke-width:0.99628;stroke-linecap:butt;stroke-linejoin:miter;stroke:rgb(0%,0%,100%);stroke-opacity:1;stroke-miterlimit:10;" d="M -0.0015625 -0.00128125 L -0.0015625 111.737 " transform="matrix(1,0,0,-1,18.65,173.112)"/>
<path style="fill-rule:nonzero;fill:rgb(0%,0%,100%);fill-opacity:1;stroke-width:0.99628;stroke-linecap:butt;stroke-linejoin:miter;stroke:rgb(0%,0%,100%);stroke-opacity:1;stroke-miterlimit:10;" d="M -6.505296 2.919531 L 0.37361 0.0015625 L -6.505296 -2.920312 Z M -6.505296 2.919531 " transform="matrix(0,-1,-1,0,18.65,61.37361)"/>
<g style="fill:rgb(0%,0%,100%);fill-opacity:1;">
  <use xlink:href="#glyph1-1" x="22.468" y="81.802"/>
</g>
<path style="fill:none;stroke-width:0.99628;stroke-linecap:butt;stroke-linejoin:miter;stroke:rgb(100%,0%,0%);stroke-opacity:1;stroke-miterlimit:10;" d="M -2.4625 148.713562 C -10.169531 148.033875 -15.317969 144.358094 -13.958594 140.502625 C -12.599219 136.647156 -5.247656 134.076844 2.459375 134.756531 C 10.170312 135.436219 15.31875 139.112 13.959375 142.963562 C 12.924219 145.897156 8.326562 148.194031 5.916406 148.408875 " transform="matrix(1,0,0,-1,18.65,173.112)"/>
<path style=" stroke:none;fill-rule:nonzero;fill:rgb(100%,0%,0%);fill-opacity:1;" d="M 21.109375 24.398438 C 22.523438 24.8125 25.0625 25.617188 26.675781 27.066406 C 25.378906 25.355469 25.480469 24.203125 27.058594 22.746094 C 25.214844 23.890625 22.574219 24.238281 21.109375 24.398438 Z M 21.109375 24.398438 "/>
<path style=" stroke:none;fill-rule:nonzero;fill:rgb(0%,0%,100%);fill-opacity:1;" d="M 20.761719 173.113281 C 20.761719 171.945312 19.816406 171 18.648438 171 C 17.484375 171 16.535156 171.945312 16.535156 173.113281 C 16.535156 174.277344 17.484375 175.226562 18.648438 175.226562 C 19.816406 175.226562 20.761719 174.277344 20.761719 173.113281 Z M 20.761719 173.113281 "/>
<g style="fill:rgb(0%,0%,100%);fill-opacity:1;">
  <use xlink:href="#glyph1-2" x="7.131" y="182.695"/>
</g>
</g>
</svg>
