<?xml version="1.0" encoding="UTF-8"?>
<svg xmlns="http://www.w3.org/2000/svg" xmlns:xlink="http://www.w3.org/1999/xlink" width="234.607pt" height="131.401pt" viewBox="0 0 234.607 131.401" version="1.1">
<defs>
<g>
<symbol overflow="visible" id="glyph0-0">
<path style="stroke:none;" d=""/>
</symbol>
<symbol overflow="visible" id="glyph0-1">
<path style="stroke:none;" d="M 4.171875 -0.421875 L 4.171875 0.0625 L 5.984375 0 L 5.984375 -0.46875 C 5.375 -0.46875 5.296875 -0.46875 5.296875 -0.859375 L 5.296875 -6.921875 L 3.53125 -6.84375 L 3.53125 -6.375 C 4.15625 -6.375 4.234375 -6.375 4.234375 -5.984375 L 4.234375 -4.03125 C 3.734375 -4.421875 3.203125 -4.484375 2.875 -4.484375 C 1.421875 -4.484375 0.375 -3.609375 0.375 -2.203125 C 0.375 -0.890625 1.296875 0.0625 2.765625 0.0625 C 3.375 0.0625 3.859375 -0.171875 4.171875 -0.421875 Z M 4.171875 -3.515625 L 4.171875 -1.03125 C 4.03125 -0.84375 3.625 -0.296875 2.875 -0.296875 C 1.65625 -0.296875 1.65625 -1.5 1.65625 -2.203125 C 1.65625 -2.6875 1.65625 -3.21875 1.90625 -3.609375 C 2.203125 -4.03125 2.671875 -4.125 2.984375 -4.125 C 3.546875 -4.125 3.953125 -3.8125 4.171875 -3.515625 Z M 4.171875 -3.515625 "/>
</symbol>
<symbol overflow="visible" id="glyph0-2">
<path style="stroke:none;" d="M 2.1875 -3.28125 C 2.1875 -3.46875 2.203125 -3.484375 2.34375 -3.625 C 2.734375 -4.03125 3.265625 -4.09375 3.484375 -4.09375 C 4.140625 -4.09375 4.703125 -3.484375 4.703125 -2.21875 C 4.703125 -0.8125 4 -0.296875 3.359375 -0.296875 C 3.21875 -0.296875 2.75 -0.296875 2.296875 -0.84375 C 2.1875 -0.96875 2.1875 -0.984375 2.1875 -1.171875 Z M 2.1875 -0.390625 C 2.625 -0.046875 3.0625 0.0625 3.46875 0.0625 C 4.96875 0.0625 5.984375 -0.84375 5.984375 -2.21875 C 5.984375 -3.546875 5.078125 -4.484375 3.640625 -4.484375 C 2.890625 -4.484375 2.359375 -4.171875 2.140625 -4 L 2.140625 -4.484375 L 0.375 -4.40625 L 0.375 -3.9375 C 0.984375 -3.9375 1.0625 -3.9375 1.0625 -3.5625 L 1.0625 1.46875 L 0.375 1.46875 L 0.375 1.9375 C 0.640625 1.921875 1.25 1.90625 1.625 1.90625 C 2.015625 1.90625 2.609375 1.921875 2.875 1.9375 L 2.875 1.46875 L 2.1875 1.46875 Z M 2.1875 -0.390625 "/>
</symbol>
<symbol overflow="visible" id="glyph1-0">
<path style="stroke:none;" d=""/>
</symbol>
<symbol overflow="visible" id="glyph1-1">
<path style="stroke:none;" d="M 4.359375 -6.671875 C 4.359375 -6.703125 4.390625 -6.8125 4.390625 -6.8125 C 4.390625 -6.828125 4.390625 -6.921875 4.265625 -6.921875 C 4.171875 -6.921875 4.15625 -6.890625 4.109375 -6.71875 L 3.53125 -4.421875 C 1.953125 -4.359375 0.484375 -3.046875 0.484375 -1.6875 C 0.484375 -0.734375 1.1875 0.046875 2.40625 0.125 C 2.328125 0.421875 2.25 0.75 2.171875 1.0625 C 2.046875 1.53125 1.953125 1.90625 1.953125 1.9375 C 1.953125 2.03125 2.03125 2.046875 2.078125 2.046875 C 2.125 2.046875 2.140625 2.03125 2.171875 2 C 2.1875 1.984375 2.25 1.75 2.28125 1.609375 L 2.65625 0.125 C 4.265625 0.0625 5.71875 -1.28125 5.71875 -2.609375 C 5.71875 -3.40625 5.1875 -4.3125 3.796875 -4.421875 Z M 2.453125 -0.09375 C 1.859375 -0.125 1.140625 -0.484375 1.140625 -1.46875 C 1.140625 -2.671875 2 -4.0625 3.484375 -4.203125 Z M 3.734375 -4.203125 C 4.5 -4.15625 5.0625 -3.703125 5.0625 -2.828125 C 5.0625 -1.640625 4.203125 -0.21875 2.71875 -0.09375 Z M 3.734375 -4.203125 "/>
</symbol>
<symbol overflow="visible" id="glyph1-2">
<path style="stroke:none;" d="M 3.328125 -3.015625 C 3.390625 -3.265625 3.625 -4.1875 4.3125 -4.1875 C 4.359375 -4.1875 4.609375 -4.1875 4.8125 -4.0625 C 4.53125 -4 4.34375 -3.765625 4.34375 -3.515625 C 4.34375 -3.359375 4.453125 -3.171875 4.71875 -3.171875 C 4.9375 -3.171875 5.25 -3.34375 5.25 -3.75 C 5.25 -4.265625 4.671875 -4.40625 4.328125 -4.40625 C 3.75 -4.40625 3.40625 -3.875 3.28125 -3.65625 C 3.03125 -4.3125 2.5 -4.40625 2.203125 -4.40625 C 1.171875 -4.40625 0.59375 -3.125 0.59375 -2.875 C 0.59375 -2.765625 0.703125 -2.765625 0.71875 -2.765625 C 0.796875 -2.765625 0.828125 -2.796875 0.84375 -2.875 C 1.1875 -3.9375 1.84375 -4.1875 2.1875 -4.1875 C 2.375 -4.1875 2.71875 -4.09375 2.71875 -3.515625 C 2.71875 -3.203125 2.546875 -2.546875 2.1875 -1.140625 C 2.03125 -0.53125 1.671875 -0.109375 1.234375 -0.109375 C 1.171875 -0.109375 0.953125 -0.109375 0.734375 -0.234375 C 0.984375 -0.296875 1.203125 -0.5 1.203125 -0.78125 C 1.203125 -1.046875 0.984375 -1.125 0.84375 -1.125 C 0.53125 -1.125 0.296875 -0.875 0.296875 -0.546875 C 0.296875 -0.09375 0.78125 0.109375 1.21875 0.109375 C 1.890625 0.109375 2.25 -0.59375 2.265625 -0.640625 C 2.390625 -0.28125 2.75 0.109375 3.34375 0.109375 C 4.375 0.109375 4.9375 -1.171875 4.9375 -1.421875 C 4.9375 -1.53125 4.859375 -1.53125 4.828125 -1.53125 C 4.734375 -1.53125 4.71875 -1.484375 4.6875 -1.421875 C 4.359375 -0.34375 3.6875 -0.109375 3.375 -0.109375 C 2.984375 -0.109375 2.828125 -0.421875 2.828125 -0.765625 C 2.828125 -0.984375 2.875 -1.203125 2.984375 -1.640625 Z M 3.328125 -3.015625 "/>
</symbol>
<symbol overflow="visible" id="glyph1-3">
<path style="stroke:none;" d="M 4.84375 -3.796875 C 4.890625 -3.9375 4.890625 -3.953125 4.890625 -4.03125 C 4.890625 -4.203125 4.75 -4.296875 4.59375 -4.296875 C 4.5 -4.296875 4.34375 -4.234375 4.25 -4.09375 C 4.234375 -4.03125 4.140625 -3.734375 4.109375 -3.546875 C 4.03125 -3.296875 3.96875 -3.015625 3.90625 -2.75 L 3.453125 -0.953125 C 3.421875 -0.8125 2.984375 -0.109375 2.328125 -0.109375 C 1.828125 -0.109375 1.71875 -0.546875 1.71875 -0.921875 C 1.71875 -1.375 1.890625 -2 2.21875 -2.875 C 2.375 -3.28125 2.421875 -3.390625 2.421875 -3.59375 C 2.421875 -4.03125 2.109375 -4.40625 1.609375 -4.40625 C 0.65625 -4.40625 0.296875 -2.953125 0.296875 -2.875 C 0.296875 -2.765625 0.390625 -2.765625 0.40625 -2.765625 C 0.515625 -2.765625 0.515625 -2.796875 0.5625 -2.953125 C 0.84375 -3.890625 1.234375 -4.1875 1.578125 -4.1875 C 1.65625 -4.1875 1.828125 -4.1875 1.828125 -3.875 C 1.828125 -3.625 1.71875 -3.359375 1.65625 -3.171875 C 1.25 -2.109375 1.078125 -1.546875 1.078125 -1.078125 C 1.078125 -0.1875 1.703125 0.109375 2.296875 0.109375 C 2.6875 0.109375 3.015625 -0.0625 3.296875 -0.34375 C 3.171875 0.171875 3.046875 0.671875 2.65625 1.203125 C 2.390625 1.53125 2.015625 1.828125 1.5625 1.828125 C 1.421875 1.828125 0.96875 1.796875 0.796875 1.40625 C 0.953125 1.40625 1.09375 1.40625 1.21875 1.28125 C 1.328125 1.203125 1.421875 1.0625 1.421875 0.875 C 1.421875 0.5625 1.15625 0.53125 1.0625 0.53125 C 0.828125 0.53125 0.5 0.6875 0.5 1.171875 C 0.5 1.671875 0.9375 2.046875 1.5625 2.046875 C 2.578125 2.046875 3.609375 1.140625 3.890625 0.015625 Z M 4.84375 -3.796875 "/>
</symbol>
<symbol overflow="visible" id="glyph1-4">
<path style="stroke:none;" d="M 1.328125 -0.828125 C 1.859375 -1.40625 2.15625 -1.65625 2.515625 -1.96875 C 2.515625 -1.96875 3.125 -2.5 3.484375 -2.859375 C 4.4375 -3.78125 4.65625 -4.265625 4.65625 -4.3125 C 4.65625 -4.40625 4.5625 -4.40625 4.546875 -4.40625 C 4.46875 -4.40625 4.453125 -4.390625 4.390625 -4.296875 C 4.09375 -3.8125 3.890625 -3.65625 3.65625 -3.65625 C 3.40625 -3.65625 3.296875 -3.8125 3.140625 -3.984375 C 2.953125 -4.203125 2.78125 -4.40625 2.453125 -4.40625 C 1.703125 -4.40625 1.25 -3.484375 1.25 -3.265625 C 1.25 -3.21875 1.28125 -3.15625 1.359375 -3.15625 C 1.453125 -3.15625 1.46875 -3.203125 1.5 -3.265625 C 1.6875 -3.734375 2.265625 -3.734375 2.34375 -3.734375 C 2.546875 -3.734375 2.734375 -3.671875 2.96875 -3.59375 C 3.375 -3.4375 3.484375 -3.4375 3.734375 -3.4375 C 3.375 -3.015625 2.546875 -2.296875 2.359375 -2.140625 L 1.453125 -1.296875 C 0.78125 -0.625 0.421875 -0.0625 0.421875 0.015625 C 0.421875 0.109375 0.53125 0.109375 0.546875 0.109375 C 0.625 0.109375 0.640625 0.09375 0.703125 -0.015625 C 0.9375 -0.375 1.234375 -0.640625 1.5625 -0.640625 C 1.78125 -0.640625 1.890625 -0.546875 2.140625 -0.265625 C 2.296875 -0.046875 2.484375 0.109375 2.765625 0.109375 C 3.765625 0.109375 4.34375 -1.15625 4.34375 -1.421875 C 4.34375 -1.46875 4.296875 -1.53125 4.21875 -1.53125 C 4.125 -1.53125 4.109375 -1.46875 4.078125 -1.390625 C 3.84375 -0.75 3.203125 -0.5625 2.875 -0.5625 C 2.6875 -0.5625 2.5 -0.625 2.296875 -0.6875 C 1.953125 -0.8125 1.796875 -0.859375 1.59375 -0.859375 C 1.578125 -0.859375 1.421875 -0.859375 1.328125 -0.828125 Z M 1.328125 -0.828125 "/>
</symbol>
<symbol overflow="visible" id="glyph1-5">
<path style="stroke:none;" d="M 5.140625 -6.8125 C 5.140625 -6.8125 5.140625 -6.921875 5.015625 -6.921875 C 4.859375 -6.921875 3.921875 -6.828125 3.75 -6.8125 C 3.671875 -6.796875 3.609375 -6.75 3.609375 -6.625 C 3.609375 -6.5 3.703125 -6.5 3.84375 -6.5 C 4.328125 -6.5 4.34375 -6.4375 4.34375 -6.328125 L 4.3125 -6.125 L 3.71875 -3.765625 C 3.53125 -4.140625 3.25 -4.40625 2.796875 -4.40625 C 1.640625 -4.40625 0.40625 -2.9375 0.40625 -1.484375 C 0.40625 -0.546875 0.953125 0.109375 1.71875 0.109375 C 1.921875 0.109375 2.421875 0.0625 3.015625 -0.640625 C 3.09375 -0.21875 3.453125 0.109375 3.921875 0.109375 C 4.28125 0.109375 4.5 -0.125 4.671875 -0.4375 C 4.828125 -0.796875 4.96875 -1.40625 4.96875 -1.421875 C 4.96875 -1.53125 4.875 -1.53125 4.84375 -1.53125 C 4.75 -1.53125 4.734375 -1.484375 4.703125 -1.34375 C 4.53125 -0.703125 4.359375 -0.109375 3.953125 -0.109375 C 3.671875 -0.109375 3.65625 -0.375 3.65625 -0.5625 C 3.65625 -0.8125 3.671875 -0.875 3.703125 -1.046875 Z M 3.078125 -1.1875 C 3.015625 -1 3.015625 -0.984375 2.875 -0.8125 C 2.4375 -0.265625 2.03125 -0.109375 1.75 -0.109375 C 1.25 -0.109375 1.109375 -0.65625 1.109375 -1.046875 C 1.109375 -1.546875 1.421875 -2.765625 1.65625 -3.234375 C 1.96875 -3.8125 2.40625 -4.1875 2.8125 -4.1875 C 3.453125 -4.1875 3.59375 -3.375 3.59375 -3.3125 C 3.59375 -3.25 3.578125 -3.1875 3.5625 -3.140625 Z M 3.078125 -1.1875 "/>
</symbol>
<symbol overflow="visible" id="glyph2-0">
<path style="stroke:none;" d=""/>
</symbol>
<symbol overflow="visible" id="glyph2-1">
<path style="stroke:none;" d="M 2.328125 -4.4375 C 2.328125 -4.625 2.328125 -4.625 2.125 -4.625 C 1.671875 -4.1875 1.046875 -4.1875 0.765625 -4.1875 L 0.765625 -3.9375 C 0.921875 -3.9375 1.390625 -3.9375 1.765625 -4.125 L 1.765625 -0.578125 C 1.765625 -0.34375 1.765625 -0.25 1.078125 -0.25 L 0.8125 -0.25 L 0.8125 0 C 0.9375 0 1.796875 -0.03125 2.046875 -0.03125 C 2.265625 -0.03125 3.140625 0 3.296875 0 L 3.296875 -0.25 L 3.03125 -0.25 C 2.328125 -0.25 2.328125 -0.34375 2.328125 -0.578125 Z M 2.328125 -4.4375 "/>
</symbol>
<symbol overflow="visible" id="glyph3-0">
<path style="stroke:none;" d=""/>
</symbol>
<symbol overflow="visible" id="glyph3-1">
<path style="stroke:none;" d="M 4.921875 -5.390625 C 5 -5.53125 5.09375 -5.703125 4.9375 -5.796875 C 4.765625 -5.890625 4.671875 -5.71875 4.59375 -5.578125 L -0.03125 2.453125 C -0.125 2.59375 -0.21875 2.765625 -0.046875 2.859375 C 0.109375 2.953125 0.203125 2.78125 0.296875 2.640625 Z M 4.921875 -5.390625 "/>
</symbol>
<symbol overflow="visible" id="glyph4-0">
<path style="stroke:none;" d=""/>
</symbol>
<symbol overflow="visible" id="glyph4-1">
<path style="stroke:none;" d="M 7.859375 -3.34375 C 7.859375 -3.34375 7.90625 -3.4375 7.796875 -3.5 C 7.65625 -3.578125 6.796875 -3.953125 6.65625 -4.03125 C 6.578125 -4.0625 6.5 -4.046875 6.4375 -3.9375 C 6.375 -3.828125 6.453125 -3.78125 6.578125 -3.703125 C 7 -3.46875 6.984375 -3.40625 6.921875 -3.3125 L 6.796875 -3.140625 L 5.09375 -1.40625 C 5.125 -1.8125 5.015625 -2.1875 4.625 -2.421875 C 3.625 -3 1.828125 -2.34375 1.09375 -1.078125 C 0.625 -0.265625 0.78125 0.5625 1.4375 0.953125 C 1.625 1.046875 2.0625 1.25 2.921875 0.9375 C 2.78125 1.359375 2.9375 1.8125 3.34375 2.046875 C 3.65625 2.234375 3.953125 2.140625 4.265625 1.953125 C 4.578125 1.71875 5 1.265625 5 1.25 C 5.0625 1.15625 4.984375 1.109375 4.953125 1.09375 C 4.875 1.046875 4.828125 1.078125 4.75 1.1875 C 4.265625 1.65625 3.828125 2.078125 3.46875 1.875 C 3.234375 1.734375 3.359375 1.5 3.453125 1.34375 C 3.578125 1.125 3.625 1.078125 3.71875 0.9375 Z M 3.265625 0.5 C 3.109375 0.640625 3.09375 0.640625 2.890625 0.734375 C 2.234375 0.984375 1.8125 0.921875 1.5625 0.78125 C 1.125 0.53125 1.28125 -0.015625 1.46875 -0.359375 C 1.71875 -0.796875 2.609375 -1.6875 3.046875 -1.96875 C 3.609375 -2.3125 4.171875 -2.421875 4.53125 -2.21875 C 5.078125 -1.90625 4.796875 -1.125 4.765625 -1.078125 C 4.734375 -1.015625 4.6875 -0.984375 4.640625 -0.9375 Z M 3.265625 0.5 "/>
</symbol>
<symbol overflow="visible" id="glyph5-0">
<path style="stroke:none;" d=""/>
</symbol>
<symbol overflow="visible" id="glyph5-1">
<path style="stroke:none;" d="M 1.859375 0.21875 C 1.703125 0.390625 1.3125 0.609375 1 0.421875 C 0.984375 0.421875 0.796875 0.3125 0.71875 0.15625 C 1.015625 0.21875 1.15625 0.015625 1.171875 -0.03125 C 1.25 -0.15625 1.1875 -0.3125 1.0625 -0.390625 C 0.875 -0.484375 0.625 -0.453125 0.5 -0.21875 C 0.328125 0.078125 0.59375 0.40625 0.890625 0.578125 C 1.171875 0.734375 1.515625 0.71875 1.796875 0.5625 C 1.78125 0.953125 2.03125 1.234375 2.28125 1.375 C 2.984375 1.78125 3.78125 1.265625 3.890625 1.09375 C 3.9375 1 3.84375 0.953125 3.828125 0.9375 C 3.734375 0.890625 3.703125 0.9375 3.65625 0.984375 C 3.28125 1.328125 2.734375 1.4375 2.40625 1.234375 C 2.15625 1.09375 2.125 0.875 2.25 0.640625 C 2.34375 0.484375 2.8125 0.015625 3.359375 -0.5625 C 3.75 -0.953125 4.109375 -0.9375 4.3125 -0.828125 C 4.328125 -0.8125 4.515625 -0.71875 4.59375 -0.5625 C 4.375 -0.625 4.1875 -0.484375 4.125 -0.375 C 4.0625 -0.265625 4.109375 -0.109375 4.25 -0.03125 C 4.375 0.046875 4.640625 0.0625 4.796875 -0.1875 C 4.984375 -0.53125 4.65625 -0.875 4.421875 -1 C 4.109375 -1.1875 3.765625 -1.125 3.5 -0.953125 C 3.53125 -1.25 3.359375 -1.625 3.015625 -1.8125 C 2.34375 -2.203125 1.546875 -1.671875 1.4375 -1.484375 C 1.390625 -1.421875 1.46875 -1.375 1.484375 -1.375 C 1.5625 -1.328125 1.578125 -1.328125 1.671875 -1.390625 C 2.078125 -1.78125 2.609375 -1.8125 2.90625 -1.640625 C 3.109375 -1.515625 3.21875 -1.3125 3.046875 -1.03125 C 2.984375 -0.90625 2.734375 -0.65625 2.546875 -0.484375 Z M 1.859375 0.21875 "/>
</symbol>
<symbol overflow="visible" id="glyph6-0">
<path style="stroke:none;" d=""/>
</symbol>
<symbol overflow="visible" id="glyph6-1">
<path style="stroke:none;" d="M -2.203125 -6.953125 C -2.28125 -7.09375 -2.375 -7.265625 -2.53125 -7.171875 C -2.703125 -7.078125 -2.609375 -6.90625 -2.53125 -6.765625 L 2.09375 1.265625 C 2.1875 1.40625 2.28125 1.578125 2.453125 1.484375 C 2.609375 1.390625 2.515625 1.21875 2.421875 1.078125 Z M -2.203125 -6.953125 "/>
</symbol>
<symbol overflow="visible" id="glyph7-0">
<path style="stroke:none;" d=""/>
</symbol>
<symbol overflow="visible" id="glyph7-1">
<path style="stroke:none;" d="M 1.046875 -8.46875 C 1.046875 -8.46875 1 -8.5625 0.890625 -8.5 C 0.75 -8.421875 -0.015625 -7.859375 -0.15625 -7.78125 C -0.203125 -7.71875 -0.25 -7.640625 -0.1875 -7.53125 C -0.125 -7.421875 -0.046875 -7.46875 0.078125 -7.546875 C 0.5 -7.78125 0.546875 -7.75 0.609375 -7.65625 L 0.671875 -7.453125 L 1.34375 -5.125 C 1 -5.34375 0.609375 -5.4375 0.21875 -5.203125 C -0.78125 -4.625 -1.109375 -2.75 -0.375 -1.484375 C 0.09375 -0.671875 0.875 -0.375 1.53125 -0.765625 C 1.71875 -0.859375 2.125 -1.15625 2.296875 -2.0625 C 2.5625 -1.734375 3.03125 -1.625 3.4375 -1.859375 C 3.75 -2.046875 3.828125 -2.359375 3.828125 -2.703125 C 3.796875 -3.09375 3.59375 -3.703125 3.59375 -3.71875 C 3.53125 -3.8125 3.453125 -3.765625 3.421875 -3.75 C 3.34375 -3.703125 3.359375 -3.640625 3.40625 -3.5 C 3.578125 -2.875 3.734375 -2.265625 3.375 -2.0625 C 3.140625 -1.921875 2.984375 -2.15625 2.890625 -2.3125 C 2.765625 -2.53125 2.75 -2.578125 2.6875 -2.75 Z M 2.078125 -2.5625 C 2.109375 -2.359375 2.125 -2.359375 2.078125 -2.140625 C 1.984375 -1.453125 1.71875 -1.109375 1.46875 -0.96875 C 1.03125 -0.71875 0.625 -1.109375 0.4375 -1.453125 C 0.1875 -1.890625 -0.140625 -3.09375 -0.171875 -3.625 C -0.203125 -4.28125 -0.015625 -4.828125 0.34375 -5.03125 C 0.890625 -5.34375 1.421875 -4.71875 1.453125 -4.671875 C 1.484375 -4.609375 1.5 -4.546875 1.515625 -4.5 Z M 2.078125 -2.5625 "/>
</symbol>
<symbol overflow="visible" id="glyph8-0">
<path style="stroke:none;" d=""/>
</symbol>
<symbol overflow="visible" id="glyph8-1">
<path style="stroke:none;" d="M 2.046875 -4.203125 C 2.03125 -4.3125 2.03125 -4.328125 2 -4.359375 C 1.9375 -4.484375 1.78125 -4.484375 1.6875 -4.421875 C 1.609375 -4.390625 1.515625 -4.3125 1.515625 -4.15625 C 1.515625 -4.09375 1.59375 -3.890625 1.625 -3.75 L 1.78125 -3.171875 C 1.828125 -3.015625 2.078125 -2.140625 2.109375 -2.0625 C 2.109375 -2.0625 2.125 -1.375 1.671875 -1.109375 C 1.25 -0.859375 1.03125 -1.25 0.96875 -1.359375 C 0.78125 -1.6875 0.703125 -2.140625 0.609375 -2.71875 C 0.5625 -2.953125 0.5625 -3.046875 0.5 -3.15625 C 0.328125 -3.4375 -0.046875 -3.53125 -0.375 -3.34375 C -0.96875 -2.984375 -0.78125 -2 -0.71875 -1.890625 C -0.671875 -1.828125 -0.59375 -1.875 -0.5625 -1.890625 C -0.484375 -1.9375 -0.5 -1.953125 -0.515625 -2.046875 C -0.640625 -2.640625 -0.53125 -3 -0.28125 -3.140625 C -0.1875 -3.203125 -0.09375 -3.171875 -0.015625 -3.03125 C 0.0625 -2.890625 0.09375 -2.734375 0.109375 -2.640625 C 0.234375 -1.71875 0.296875 -1.46875 0.453125 -1.203125 C 0.515625 -1.109375 0.671875 -0.828125 1.03125 -0.75 C 1.296875 -0.703125 1.578125 -0.84375 1.734375 -0.9375 C 1.984375 -1.078125 2.15625 -1.28125 2.234375 -1.578125 C 2.34375 -1.1875 2.4375 -0.90625 2.359375 -0.453125 C 2.296875 -0.171875 2.171875 0.171875 1.84375 0.359375 C 1.796875 0.375 1.515625 0.546875 1.28125 0.40625 C 1.578125 0.1875 1.421875 -0.09375 1.40625 -0.109375 C 1.296875 -0.296875 1.109375 -0.234375 1.046875 -0.203125 C 0.90625 -0.125 0.765625 0.125 0.9375 0.40625 C 1.109375 0.703125 1.515625 0.765625 1.953125 0.515625 C 2.5625 0.171875 3.03125 -0.75 2.78125 -1.609375 Z M 2.046875 -4.203125 "/>
</symbol>
</g>
<clipPath id="clip1">
  <path d="M 39 1 L 234.605469 1 L 234.605469 81 L 39 81 Z M 39 1 "/>
</clipPath>
<clipPath id="clip2">
  <path d="M 4 70 L 93 70 L 93 131.402344 L 4 131.402344 Z M 4 70 "/>
</clipPath>
</defs>
<g id="surface1">
<g clip-path="url(#clip1)" clip-rule="nonzero">
<path style="fill:none;stroke-width:0.3985;stroke-linecap:butt;stroke-linejoin:miter;stroke:rgb(100%,0%,0%);stroke-opacity:1;stroke-miterlimit:10;" d="M 26.463281 10.158219 L 212.924219 78.025406 " transform="matrix(1,0,0,-1,18.65,84.834)"/>
</g>
<path style="fill:none;stroke-width:0.99628;stroke-linecap:butt;stroke-linejoin:miter;stroke:rgb(0%,0%,100%);stroke-opacity:1;stroke-miterlimit:10;" d="M -0.0015625 -0.0019375 L 104.998437 38.216813 " transform="matrix(1,0,0,-1,18.65,84.834)"/>
<path style="fill-rule:nonzero;fill:rgb(0%,0%,100%);fill-opacity:1;stroke-width:0.99628;stroke-linecap:butt;stroke-linejoin:miter;stroke:rgb(0%,0%,100%);stroke-opacity:1;stroke-miterlimit:10;" d="M -6.505001 2.919823 L 0.372506 0.000955482 L -6.506358 -2.920268 Z M -6.505001 2.919823 " transform="matrix(0.93968,-0.34201,-0.34201,-0.93968,123.65029,46.61658)"/>
<g style="fill:rgb(0%,0%,100%);fill-opacity:1;">
  <use xlink:href="#glyph0-1" x="122.016" y="42.236"/>
</g>
<path style="fill:none;stroke-width:0.99628;stroke-linecap:butt;stroke-linejoin:miter;stroke:rgb(100%,0%,0%);stroke-opacity:1;stroke-miterlimit:10;" d="M 138.900781 53.17775 C 135.627344 60.189469 130.4125 63.767594 127.25625 61.173844 C 124.1 58.576188 124.19375 50.791031 127.471094 43.779313 C 130.744531 36.767594 135.959375 33.185563 139.115625 35.783219 C 141.517969 37.759781 142.107812 42.861344 141.482812 45.201188 " transform="matrix(1,0,0,-1,18.65,84.834)"/>
<path style=" stroke:none;fill-rule:nonzero;fill:rgb(100%,0%,0%);fill-opacity:1;" d="M 159.234375 36.28125 C 159.328125 37.75 159.441406 40.414062 158.632812 42.421875 C 159.796875 40.617188 160.914062 40.320312 162.820312 41.304688 C 161.117188 39.964844 159.886719 37.601562 159.234375 36.28125 Z M 159.234375 36.28125 "/>
<path style="fill:none;stroke-width:0.99628;stroke-linecap:butt;stroke-linejoin:miter;stroke:rgb(0%,0%,100%);stroke-opacity:1;stroke-miterlimit:10;" d="M -2.4625 49.498063 C -10.169531 48.818375 -15.317969 45.142594 -13.958594 41.291031 C -12.599219 37.435563 -5.247656 34.861344 2.459375 35.541031 C 10.170312 36.220719 15.31875 39.8965 13.959375 43.751969 C 12.924219 46.685563 8.326562 48.982438 5.916406 49.193375 " transform="matrix(1,0,0,-1,18.65,84.834)"/>
<path style=" stroke:none;fill-rule:nonzero;fill:rgb(0%,0%,100%);fill-opacity:1;" d="M 21.109375 35.335938 C 22.523438 35.75 25.0625 36.554688 26.675781 38 C 25.378906 36.289062 25.480469 35.140625 27.058594 33.683594 C 25.214844 34.828125 22.574219 35.171875 21.109375 35.335938 Z M 21.109375 35.335938 "/>
<path style="fill:none;stroke-width:0.19925;stroke-linecap:butt;stroke-linejoin:miter;stroke:rgb(50%,50%,50%);stroke-opacity:1;stroke-miterlimit:10;" d="M -0.0015625 -0.0019375 L 106.549219 -0.0019375 L 106.549219 38.783219 M 46.135156 26.638688 L 106.549219 -0.0019375 " transform="matrix(1,0,0,-1,18.65,84.834)"/>
<path style="fill:none;stroke-width:0.19925;stroke-linecap:butt;stroke-linejoin:miter;stroke:rgb(50%,50%,50%);stroke-opacity:1;stroke-miterlimit:10;" d="M 41.228906 23.80275 L 46.135156 20.966813 L 51.045312 23.80275 " transform="matrix(1,0,0,-1,18.65,84.834)"/>
<g style="fill:rgb(50%,50%,50%);fill-opacity:1;">
  <use xlink:href="#glyph1-1" x="34.027" y="82.41"/>
</g>
<g clip-path="url(#clip2)" clip-rule="nonzero">
<path style="fill:none;stroke-width:0.99628;stroke-linecap:butt;stroke-linejoin:miter;stroke:rgb(0%,0%,0%);stroke-opacity:1;stroke-miterlimit:10;" d="M -0.0015625 -0.0019375 L 59.939844 -34.607406 " transform="matrix(1,0,0,-1,18.65,84.834)"/>
</g>
<path style="fill-rule:nonzero;fill:rgb(0%,0%,0%);fill-opacity:1;stroke-width:0.99628;stroke-linecap:butt;stroke-linejoin:round;stroke:rgb(0%,0%,0%);stroke-opacity:1;stroke-miterlimit:10;" d="M 1.154901 -0.00172478 C -0.288822 0.287907 -1.732374 0.866317 -3.466141 1.877089 C -1.732545 0.577538 -1.733227 -0.577577 -3.468358 -1.877035 C -1.733397 -0.866356 -0.289163 -0.289651 1.154901 -0.00172478 Z M 1.154901 -0.00172478 " transform="matrix(0.86601,0.49998,0.49998,-0.86601,78.59055,119.44061)"/>
<g style="fill:rgb(0%,0%,0%);fill-opacity:1;">
  <use xlink:href="#glyph1-2" x="82.085" y="125.246"/>
</g>
<path style="fill:none;stroke-width:0.99628;stroke-linecap:butt;stroke-linejoin:miter;stroke:rgb(0%,0%,0%);stroke-opacity:1;stroke-miterlimit:10;" d="M -0.0015625 -0.0019375 L 59.939844 34.607438 " transform="matrix(1,0,0,-1,18.65,84.834)"/>
<path style="fill-rule:nonzero;fill:rgb(0%,0%,0%);fill-opacity:1;stroke-width:0.99628;stroke-linecap:butt;stroke-linejoin:round;stroke:rgb(0%,0%,0%);stroke-opacity:1;stroke-miterlimit:10;" d="M 1.154917 0.00175185 C -0.289147 0.289678 -1.733382 0.866383 -3.468342 1.877062 C -1.733211 0.577604 -1.732529 -0.577511 -3.466126 -1.877061 C -1.732359 -0.866289 -0.288806 -0.287879 1.154917 0.00175185 Z M 1.154917 0.00175185 " transform="matrix(0.86601,-0.49998,-0.49998,-0.86601,78.59055,50.22739)"/>
<g style="fill:rgb(0%,0%,0%);fill-opacity:1;">
  <use xlink:href="#glyph1-3" x="82.311" y="47.742"/>
</g>
<path style="fill:none;stroke-width:0.99628;stroke-linecap:butt;stroke-linejoin:miter;stroke:rgb(0%,0%,0%);stroke-opacity:1;stroke-miterlimit:10;" d="M -0.0015625 -0.0019375 L -0.0015625 69.212906 " transform="matrix(1,0,0,-1,18.65,84.834)"/>
<path style="fill-rule:nonzero;fill:rgb(0%,0%,0%);fill-opacity:1;stroke-width:0.99628;stroke-linecap:butt;stroke-linejoin:round;stroke:rgb(0%,0%,0%);stroke-opacity:1;stroke-miterlimit:10;" d="M 1.155976 0.0015625 C -0.289336 0.290625 -1.734649 0.864844 -3.465118 1.876563 C -1.734649 0.579688 -1.734649 -0.576562 -3.465118 -1.877344 C -1.734649 -0.865625 -0.289336 -0.2875 1.155976 0.0015625 Z M 1.155976 0.0015625 " transform="matrix(0,-1,-1,0,18.65,15.62082)"/>
<g style="fill:rgb(0%,0%,0%);fill-opacity:1;">
  <use xlink:href="#glyph1-4" x="16.114" y="10.443"/>
</g>
<path style="fill:none;stroke-width:0.19925;stroke-linecap:butt;stroke-linejoin:miter;stroke:rgb(50%,50%,50%);stroke-opacity:1;stroke-miterlimit:10;" d="M 3.049219 -5.669906 L 103.502344 -5.669906 " transform="matrix(1,0,0,-1,18.65,84.834)"/>
<path style=" stroke:none;fill-rule:nonzero;fill:rgb(50%,50%,50%);fill-opacity:1;" d="M 18.648438 90.503906 C 19.554688 90.671875 21.019531 91.179688 22.039062 91.773438 L 22.039062 89.234375 C 21.019531 89.824219 19.554688 90.332031 18.648438 90.503906 "/>
<path style=" stroke:none;fill-rule:nonzero;fill:rgb(50%,50%,50%);fill-opacity:1;" d="M 125.199219 90.503906 C 124.296875 90.332031 122.828125 89.824219 121.8125 89.234375 L 121.8125 91.773438 C 122.828125 91.179688 124.296875 90.671875 125.199219 90.503906 "/>
<g style="fill:rgb(50%,50%,50%);fill-opacity:1;">
  <use xlink:href="#glyph1-5" x="67.097" y="100.841"/>
</g>
<g style="fill:rgb(50%,50%,50%);fill-opacity:1;">
  <use xlink:href="#glyph2-1" x="72.282" y="102.335"/>
</g>
<path style="fill:none;stroke-width:0.19925;stroke-linecap:butt;stroke-linejoin:miter;stroke:rgb(50%,50%,50%);stroke-opacity:1;stroke-miterlimit:10;" d="M 53.834375 28.24025 L 108.670312 4.064469 " transform="matrix(1,0,0,-1,18.65,84.834)"/>
<path style=" stroke:none;fill-rule:nonzero;fill:rgb(50%,50%,50%);fill-opacity:1;" d="M 69.695312 55.363281 C 70.453125 55.882812 71.59375 56.9375 72.285156 57.890625 L 73.308594 55.566406 C 72.140625 55.699219 70.589844 55.570312 69.695312 55.363281 "/>
<path style=" stroke:none;fill-rule:nonzero;fill:rgb(50%,50%,50%);fill-opacity:1;" d="M 130.109375 82 C 129.351562 81.480469 128.214844 80.421875 127.523438 79.472656 L 126.496094 81.796875 C 127.667969 81.664062 129.214844 81.789062 130.109375 82 "/>
<g style="fill:rgb(50%,50%,50%);fill-opacity:1;">
  <use xlink:href="#glyph3-1" x="96.043" y="59.628"/>
</g>
<g style="fill:rgb(50%,50%,50%);fill-opacity:1;">
  <use xlink:href="#glyph4-1" x="98.439305" y="61.0115"/>
</g>
<g style="fill:rgb(50%,50%,50%);fill-opacity:1;">
  <use xlink:href="#glyph5-1" x="102.183037" y="64.899215"/>
</g>
<g style="fill:rgb(50%,50%,50%);fill-opacity:1;">
  <use xlink:href="#glyph3-1" x="107.274543" y="66.1125"/>
</g>
<path style="fill:none;stroke-width:0.19925;stroke-linecap:butt;stroke-linejoin:miter;stroke:rgb(50%,50%,50%);stroke-opacity:1;stroke-miterlimit:10;" d="M -2.271094 4.357438 L 38.588281 27.947281 " transform="matrix(1,0,0,-1,18.65,84.834)"/>
<path style=" stroke:none;fill-rule:nonzero;fill:rgb(50%,50%,50%);fill-opacity:1;" d="M 13.742188 82 C 14.605469 81.695312 16.132812 81.402344 17.308594 81.40625 L 16.039062 79.207031 C 15.453125 80.226562 14.4375 81.402344 13.742188 82 "/>
<path style=" stroke:none;fill-rule:nonzero;fill:rgb(50%,50%,50%);fill-opacity:1;" d="M 59.878906 55.363281 C 59.011719 55.667969 57.484375 55.960938 56.308594 55.957031 L 57.578125 58.15625 C 58.164062 57.132812 59.179688 55.960938 59.878906 55.363281 "/>
<g style="fill:rgb(50%,50%,50%);fill-opacity:1;">
  <use xlink:href="#glyph6-1" x="26.958" y="67.128"/>
</g>
<g style="fill:rgb(50%,50%,50%);fill-opacity:1;">
  <use xlink:href="#glyph7-1" x="29.355171" y="65.744"/>
</g>
<g style="fill:rgb(50%,50%,50%);fill-opacity:1;">
  <use xlink:href="#glyph8-1" x="34.592537" y="64.445349"/>
</g>
<g style="fill:rgb(50%,50%,50%);fill-opacity:1;">
  <use xlink:href="#glyph6-1" x="37.992954" y="60.757"/>
</g>
<path style=" stroke:none;fill-rule:nonzero;fill:rgb(0%,0%,100%);fill-opacity:1;" d="M 20.761719 84.835938 C 20.761719 83.667969 19.816406 82.71875 18.648438 82.71875 C 17.484375 82.71875 16.535156 83.667969 16.535156 84.835938 C 16.535156 86 17.484375 86.949219 18.648438 86.949219 C 19.816406 86.949219 20.761719 86 20.761719 84.835938 Z M 20.761719 84.835938 "/>
<g style="fill:rgb(0%,0%,100%);fill-opacity:1;">
  <use xlink:href="#glyph0-2" x="7.131" y="94.416"/>
</g>
</g>
</svg>
