<?xml version="1.0" encoding="UTF-8"?>
<svg xmlns="http://www.w3.org/2000/svg" xmlns:xlink="http://www.w3.org/1999/xlink" width="190.694pt" height="92.191pt" viewBox="0 0 190.694 92.191" version="1.1">
<defs>
<g>
<symbol overflow="visible" id="glyph0-0">
<path style="stroke:none;" d=""/>
</symbol>
<symbol overflow="visible" id="glyph0-1">
<path style="stroke:none;" d="M 3.734375 -0.765625 C 3.734375 -0.453125 3.734375 0 4.765625 0 L 5.25 0 C 5.4375 0 5.5625 0 5.5625 -0.234375 C 5.5625 -0.46875 5.4375 -0.46875 5.296875 -0.46875 C 4.6875 -0.484375 4.6875 -0.609375 4.6875 -0.84375 L 4.6875 -2.984375 C 4.6875 -3.875 3.984375 -4.515625 2.5 -4.515625 C 1.9375 -4.515625 0.71875 -4.46875 0.71875 -3.59375 C 0.71875 -3.15625 1.0625 -2.96875 1.328125 -2.96875 C 1.640625 -2.96875 1.96875 -3.1875 1.96875 -3.59375 C 1.96875 -3.890625 1.78125 -4.0625 1.75 -4.09375 C 2.03125 -4.140625 2.34375 -4.15625 2.46875 -4.15625 C 3.203125 -4.15625 3.5625 -3.734375 3.5625 -2.984375 L 3.5625 -2.640625 C 2.84375 -2.609375 0.3125 -2.515625 0.3125 -1.078125 C 0.3125 -0.125 1.5625 0.0625 2.25 0.0625 C 3.046875 0.0625 3.515625 -0.34375 3.734375 -0.765625 Z M 3.5625 -2.328125 L 3.5625 -1.390625 C 3.5625 -0.421875 2.640625 -0.296875 2.390625 -0.296875 C 1.890625 -0.296875 1.484375 -0.640625 1.484375 -1.09375 C 1.484375 -2.15625 3.0625 -2.296875 3.5625 -2.328125 Z M 3.5625 -2.328125 "/>
</symbol>
<symbol overflow="visible" id="glyph0-2">
<path style="stroke:none;" d="M 2.140625 -4 L 2.140625 -6.921875 L 0.375 -6.84375 L 0.375 -6.375 C 0.984375 -6.375 1.0625 -6.375 1.0625 -5.984375 L 1.0625 0 L 1.53125 0 L 2.015625 -0.5625 C 2.09375 -0.484375 2.578125 0.0625 3.46875 0.0625 C 4.953125 0.0625 5.984375 -0.84375 5.984375 -2.21875 C 5.984375 -3.546875 5.046875 -4.484375 3.59375 -4.484375 C 2.875 -4.484375 2.375 -4.203125 2.140625 -4 Z M 2.1875 -0.984375 L 2.1875 -3.484375 C 2.46875 -3.84375 2.9375 -4.125 3.484375 -4.125 C 4.703125 -4.125 4.703125 -2.921875 4.703125 -2.21875 C 4.703125 -1.75 4.703125 -1.203125 4.453125 -0.8125 C 4.15625 -0.40625 3.703125 -0.296875 3.375 -0.296875 C 2.6875 -0.296875 2.296875 -0.84375 2.1875 -0.984375 Z M 2.1875 -0.984375 "/>
</symbol>
<symbol overflow="visible" id="glyph1-0">
<path style="stroke:none;" d=""/>
</symbol>
<symbol overflow="visible" id="glyph1-1">
<path style="stroke:none;" d="M 4.078125 -2.296875 L 6.859375 -2.296875 C 7 -2.296875 7.1875 -2.296875 7.1875 -2.5 C 7.1875 -2.6875 7 -2.6875 6.859375 -2.6875 L 4.078125 -2.6875 L 4.078125 -5.484375 C 4.078125 -5.625 4.078125 -5.8125 3.875 -5.8125 C 3.671875 -5.8125 3.671875 -5.625 3.671875 -5.484375 L 3.671875 -2.6875 L 0.890625 -2.6875 C 0.75 -2.6875 0.5625 -2.6875 0.5625 -2.5 C 0.5625 -2.296875 0.75 -2.296875 0.890625 -2.296875 L 3.671875 -2.296875 L 3.671875 0.5 C 3.671875 0.640625 3.671875 0.828125 3.875 0.828125 C 4.078125 0.828125 4.078125 0.640625 4.078125 0.5 Z M 4.078125 -2.296875 "/>
</symbol>
<symbol overflow="visible" id="glyph2-0">
<path style="stroke:none;" d=""/>
</symbol>
<symbol overflow="visible" id="glyph2-1">
<path style="stroke:none;" d="M 6.5625 -2.296875 C 6.734375 -2.296875 6.921875 -2.296875 6.921875 -2.5 C 6.921875 -2.6875 6.734375 -2.6875 6.5625 -2.6875 L 1.171875 -2.6875 C 1 -2.6875 0.828125 -2.6875 0.828125 -2.5 C 0.828125 -2.296875 1 -2.296875 1.171875 -2.296875 Z M 6.5625 -2.296875 "/>
</symbol>
</g>
<clipPath id="clip1">
  <path d="M 31 15 L 119 15 L 119 92.191406 L 31 92.191406 Z M 31 15 "/>
</clipPath>
<clipPath id="clip2">
  <path d="M 91 14 L 190.695312 14 L 190.695312 64 L 91 64 Z M 91 14 "/>
</clipPath>
<clipPath id="clip3">
  <path d="M 160 30 L 190.695312 30 L 190.695312 65 L 160 65 Z M 160 30 "/>
</clipPath>
<clipPath id="clip4">
  <path d="M 31 38 L 190.695312 38 L 190.695312 92.191406 L 31 92.191406 Z M 31 38 "/>
</clipPath>
<clipPath id="clip5">
  <path d="M 160 36 L 190.695312 36 L 190.695312 71 L 160 71 Z M 160 36 "/>
</clipPath>
<clipPath id="clip6">
  <path d="M 9 0 L 60 0 L 60 92.191406 L 9 92.191406 Z M 9 0 "/>
</clipPath>
</defs>
<g id="surface1">
<g clip-path="url(#clip1)" clip-rule="nonzero">
<path style="fill:none;stroke-width:0.99628;stroke-linecap:butt;stroke-linejoin:miter;stroke:rgb(0%,0%,100%);stroke-opacity:1;stroke-miterlimit:10;" d="M 0.00184375 -0.001375 L 58.966687 58.967375 " transform="matrix(1,0,0,-1,45.088,88.858)"/>
</g>
<path style="fill-rule:nonzero;fill:rgb(0%,0%,100%);fill-opacity:1;stroke-width:0.99628;stroke-linecap:butt;stroke-linejoin:miter;stroke:rgb(0%,0%,100%);stroke-opacity:1;stroke-miterlimit:10;" d="M -6.504579 2.920092 L 0.373205 -0.00227602 L -6.504579 -2.919119 Z M -6.504579 2.920092 " transform="matrix(0.7071,-0.7071,-0.7071,-0.7071,104.05481,29.89119)"/>
<g style="fill:rgb(0%,0%,100%);fill-opacity:1;">
  <use xlink:href="#glyph0-1" x="65.767" y="54.974"/>
</g>
<g clip-path="url(#clip2)" clip-rule="nonzero">
<path style="fill:none;stroke-width:0.99628;stroke-linecap:butt;stroke-linejoin:miter;stroke:rgb(100%,0%,0%);stroke-opacity:1;stroke-miterlimit:10;" d="M 60.13075 60.131438 L 136.833875 39.580656 " transform="matrix(1,0,0,-1,45.088,88.858)"/>
</g>
<path style=" stroke:none;fill-rule:nonzero;fill:rgb(100%,0%,0%);fill-opacity:1;" d="M 176.394531 44.773438 L 182.28125 49.375 L 174.882812 50.414062 Z M 176.394531 44.773438 "/>
<g clip-path="url(#clip3)" clip-rule="nonzero">
<path style="fill:none;stroke-width:0.99628;stroke-linecap:butt;stroke-linejoin:miter;stroke:rgb(100%,0%,0%);stroke-opacity:1;stroke-miterlimit:10;" d="M -6.504358 2.92019 L 0.372686 -0.00119319 L -6.504835 -2.919517 Z M -6.504358 2.92019 " transform="matrix(0.96593,0.25879,0.25879,-0.96593,181.92157,49.2774)"/>
</g>
<g style="fill:rgb(100%,0%,0%);fill-opacity:1;">
  <use xlink:href="#glyph0-2" x="150.109" y="35.913"/>
</g>
<g clip-path="url(#clip4)" clip-rule="nonzero">
<path style="fill:none;stroke-width:0.99628;stroke-linecap:butt;stroke-linejoin:miter;stroke:rgb(0%,50%,0%);stroke-opacity:1;stroke-miterlimit:10;" d="M 0.00184375 -0.001375 L 136.833875 36.662688 " transform="matrix(1,0,0,-1,45.088,88.858)"/>
</g>
<path style=" stroke:none;fill-rule:nonzero;fill:rgb(0%,50%,0%);fill-opacity:1;" d="M 174.882812 51.054688 L 182.28125 52.097656 L 176.394531 56.695312 Z M 174.882812 51.054688 "/>
<g clip-path="url(#clip5)" clip-rule="nonzero">
<path style="fill:none;stroke-width:0.99628;stroke-linecap:butt;stroke-linejoin:miter;stroke:rgb(0%,50%,0%);stroke-opacity:1;stroke-miterlimit:10;" d="M -6.5043 2.921516 L 0.372211 -0.000580512 L -6.503823 -2.918191 Z M -6.5043 2.921516 " transform="matrix(0.96593,-0.25879,-0.25879,-0.96593,181.92157,52.19342)"/>
</g>
<g style="fill:rgb(0%,50%,0%);fill-opacity:1;">
  <use xlink:href="#glyph0-1" x="120.043" y="80.533"/>
</g>
<g style="fill:rgb(0%,50%,0%);fill-opacity:1;">
  <use xlink:href="#glyph1-1" x="127.826" y="80.533"/>
</g>
<g style="fill:rgb(0%,50%,0%);fill-opacity:1;">
  <use xlink:href="#glyph0-2" x="137.788" y="80.533"/>
</g>
<path style="fill:none;stroke-width:0.99628;stroke-linecap:butt;stroke-linejoin:miter;stroke:rgb(100%,0%,0%);stroke-opacity:1;stroke-miterlimit:10;" d="M 60.13075 60.131438 L -18.49425 81.20175 " transform="matrix(1,0,0,-1,45.088,88.858)"/>
<path style="fill-rule:nonzero;fill:rgb(100%,0%,0%);fill-opacity:1;stroke-width:0.99628;stroke-linecap:butt;stroke-linejoin:miter;stroke:rgb(100%,0%,0%);stroke-opacity:1;stroke-miterlimit:10;" d="M -6.502912 2.919215 L 0.373122 0.0016049 L -6.503389 -2.920492 Z M -6.502912 2.919215 " transform="matrix(-0.96593,-0.25879,-0.25879,0.96593,26.5952,7.65751)"/>
<g style="fill:rgb(100%,0%,0%);fill-opacity:1;">
  <use xlink:href="#glyph2-1" x="67.967" y="13.073"/>
</g>
<g style="fill:rgb(100%,0%,0%);fill-opacity:1;">
  <use xlink:href="#glyph0-2" x="75.716" y="13.073"/>
</g>
<g clip-path="url(#clip6)" clip-rule="nonzero">
<path style="fill:none;stroke-width:0.99628;stroke-linecap:butt;stroke-linejoin:miter;stroke:rgb(0%,50%,0%);stroke-opacity:1;stroke-miterlimit:10;" d="M 0.00184375 -0.001375 L -21.068469 78.623625 " transform="matrix(1,0,0,-1,45.088,88.858)"/>
</g>
<path style="fill-rule:nonzero;fill:rgb(0%,50%,0%);fill-opacity:1;stroke-width:0.99628;stroke-linecap:butt;stroke-linejoin:miter;stroke:rgb(0%,50%,0%);stroke-opacity:1;stroke-miterlimit:10;" d="M -6.502975 2.91979 L 0.374546 0.00146607 L -6.506271 -2.918907 Z M -6.502975 2.91979 " transform="matrix(-0.25879,-0.96593,-0.96593,0.25879,24.02022,10.2325)"/>
<g style="fill:rgb(0%,50%,0%);fill-opacity:1;">
  <use xlink:href="#glyph0-1" x="6.154" y="58.524"/>
</g>
<g style="fill:rgb(0%,50%,0%);fill-opacity:1;">
  <use xlink:href="#glyph2-1" x="13.938" y="58.524"/>
</g>
<g style="fill:rgb(0%,50%,0%);fill-opacity:1;">
  <use xlink:href="#glyph0-2" x="23.9" y="58.524"/>
</g>
</g>
</svg>
