<?xml version="1.0" encoding="UTF-8"?>
<svg xmlns="http://www.w3.org/2000/svg" xmlns:xlink="http://www.w3.org/1999/xlink" width="259.894pt" height="231.46pt" viewBox="0 0 259.894 231.46" version="1.1">
<defs>
<g>
<symbol overflow="visible" id="glyph0-0">
<path style="stroke:none;" d=""/>
</symbol>
<symbol overflow="visible" id="glyph0-1">
<path style="stroke:none;" d="M 0.109375 -2.515625 L 0.109375 -1.9375 L 2.765625 -1.9375 L 2.765625 -2.515625 Z M 0.109375 -2.515625 "/>
</symbol>
<symbol overflow="visible" id="glyph0-2">
<path style="stroke:none;" d="M 0.84375 -4.578125 C 1 -5.28125 1.296875 -6.125 2.21875 -6.125 C 3.046875 -6.125 3.65625 -5.4375 3.65625 -4.59375 C 3.65625 -3.59375 2.8125 -2.875 2.140625 -2.265625 C 1.875 -2.03125 1.625 -1.78125 1.359375 -1.515625 L 0.59375 -0.75 C 0.53125 -0.671875 0.5 -0.640625 0.5 -0.53125 L 0.5 -0.015625 L 4.46875 -0.015625 L 4.46875 -0.71875 L 1.21875 -0.703125 C 1.765625 -1.203125 2.265625 -1.71875 2.828125 -2.21875 C 3.5625 -2.859375 4.46875 -3.515625 4.46875 -4.640625 C 4.46875 -5.265625 4.203125 -5.90625 3.734375 -6.296875 C 3.375 -6.59375 2.9375 -6.734375 2.46875 -6.765625 L 2.359375 -6.765625 C 1.46875 -6.765625 0.875 -6.3125 0.484375 -5.328125 C 0.453125 -5.28125 0.421875 -5.21875 0.421875 -5.15625 L 0.421875 -5.140625 C 0.4375 -5.0625 0.515625 -5 0.546875 -4.953125 C 0.640625 -4.828125 0.734375 -4.6875 0.84375 -4.578125 Z M 0.84375 -4.578125 "/>
</symbol>
<symbol overflow="visible" id="glyph0-3">
<path style="stroke:none;" d="M 0.890625 -5.515625 C 1.34375 -5.578125 1.78125 -5.546875 2.1875 -5.765625 L 2.1875 -0.59375 L 0.953125 -0.59375 L 0.953125 -0.015625 L 4.234375 -0.015625 L 4.234375 -0.59375 L 2.984375 -0.59375 L 2.984375 -6.765625 L 2.875 -6.765625 C 2.71875 -6.765625 2.515625 -6.53125 2.359375 -6.4375 C 1.96875 -6.203125 1.5 -6.109375 1.0625 -6.109375 L 1 -6.109375 C 0.921875 -6.109375 0.890625 -6.078125 0.890625 -5.984375 Z M 0.890625 -5.515625 "/>
</symbol>
<symbol overflow="visible" id="glyph0-4">
<path style="stroke:none;" d="M 2.359375 -6.765625 C 0.421875 -6.578125 0.40625 -4.171875 0.40625 -3.203125 C 0.40625 -1.796875 0.703125 0.21875 2.46875 0.21875 C 3.203125 0.21875 3.828125 -0.203125 4.15625 -0.875 C 4.46875 -1.5 4.53125 -2.1875 4.5625 -2.875 L 4.5625 -3.359375 C 4.5625 -4.796875 4.21875 -6.765625 2.5 -6.765625 C 2.453125 -6.765625 2.40625 -6.765625 2.359375 -6.765625 Z M 1.1875 -2.828125 C 1.171875 -2.90625 1.171875 -2.984375 1.171875 -3.078125 L 1.171875 -3.53125 C 1.171875 -4.703125 1.34375 -6.15625 2.5 -6.15625 C 3.75 -6.15625 3.78125 -4.328125 3.78125 -3.34375 L 3.78125 -3.015625 C 3.78125 -2.078125 3.703125 -0.40625 2.5 -0.40625 C 1.53125 -0.40625 1.28125 -1.59375 1.203125 -2.421875 C 1.203125 -2.546875 1.203125 -2.6875 1.1875 -2.828125 Z M 1.1875 -2.828125 "/>
</symbol>
<symbol overflow="visible" id="glyph0-5">
<path style="stroke:none;" d="M 0.90625 -5.125 C 0.96875 -5.21875 1 -5.3125 1.0625 -5.40625 C 1.375 -5.859375 1.890625 -6.1875 2.46875 -6.1875 C 3 -6.1875 3.484375 -5.796875 3.484375 -5.234375 C 3.484375 -4.59375 3 -4.03125 2.40625 -3.90625 C 2.15625 -3.84375 1.890625 -3.859375 1.65625 -3.84375 L 1.65625 -3.234375 L 2.25 -3.234375 C 2.484375 -3.234375 2.703125 -3.234375 2.90625 -3.140625 C 3.421875 -2.90625 3.671875 -2.359375 3.671875 -1.8125 C 3.671875 -1.09375 3.21875 -0.40625 2.421875 -0.40625 C 1.640625 -0.40625 1 -0.8125 0.53125 -1.421875 C 0.515625 -1.375 0.5 -1.3125 0.484375 -1.25 L 0.453125 -1 C 0.4375 -0.953125 0.421875 -0.90625 0.421875 -0.859375 L 0.421875 -0.828125 C 0.71875 -0.203125 1.8125 0.203125 2.453125 0.203125 C 3.59375 0.203125 4.5625 -0.703125 4.5625 -1.796875 C 4.5625 -2.5 4.109375 -3.078125 3.515625 -3.40625 C 3.40625 -3.453125 3.296875 -3.515625 3.171875 -3.53125 C 3.796875 -3.890625 4.28125 -4.453125 4.28125 -5.25 C 4.28125 -6.234375 3.3125 -6.75 2.46875 -6.75 C 1.703125 -6.75 1.0625 -6.40625 0.609375 -5.765625 C 0.59375 -5.734375 0.5625 -5.703125 0.5625 -5.65625 C 0.5625 -5.5625 0.796875 -5.296875 0.90625 -5.125 Z M 0.90625 -5.125 "/>
</symbol>
<symbol overflow="visible" id="glyph0-6">
<path style="stroke:none;" d="M 0.28125 -1.71875 L 2.921875 -1.71875 L 2.921875 -0.015625 L 3.703125 -0.015625 L 3.703125 -1.71875 L 4.6875 -1.71875 L 4.6875 -2.328125 L 3.703125 -2.328125 L 3.703125 -6.546875 L 2.890625 -6.546875 L 2.796875 -6.515625 L 2.578125 -6.1875 L 0.296875 -2.328125 L 0.28125 -2.109375 Z M 1.0625 -2.328125 C 1.53125 -3.1875 2.046875 -3.984375 2.5 -4.859375 C 2.6875 -5.265625 2.953125 -5.71875 2.96875 -6.15625 L 2.984375 -2.328125 Z M 1.0625 -2.328125 "/>
</symbol>
<symbol overflow="visible" id="glyph0-7">
<path style="stroke:none;" d="M 0.796875 -6.546875 L 0.796875 -2.859375 L 1.265625 -2.859375 C 1.28125 -2.859375 1.3125 -2.84375 1.359375 -2.84375 C 1.5 -2.84375 1.578125 -3.09375 1.6875 -3.234375 C 1.890625 -3.484375 2.21875 -3.65625 2.546875 -3.65625 C 3.453125 -3.65625 3.59375 -2.578125 3.59375 -2.03125 C 3.59375 -1.25 3.203125 -0.40625 2.265625 -0.40625 C 1.625 -0.40625 1.0625 -0.78125 0.734375 -1.328125 L 0.71875 -1.328125 C 0.609375 -1.15625 0.40625 -0.875 0.40625 -0.78125 L 0.40625 -0.765625 C 0.40625 -0.6875 0.578125 -0.53125 0.65625 -0.453125 C 1.09375 -0.03125 1.6875 0.203125 2.296875 0.203125 L 2.40625 0.203125 C 3.578125 0.140625 4.46875 -0.875 4.46875 -2.046875 C 4.46875 -3.1875 3.6875 -4.265625 2.578125 -4.265625 C 2.171875 -4.265625 1.796875 -4.109375 1.515625 -3.84375 L 1.515625 -5.90625 L 4.140625 -5.90625 L 4.140625 -6.546875 Z M 0.796875 -6.546875 "/>
</symbol>
<symbol overflow="visible" id="glyph0-8">
<path style="stroke:none;" d="M 1.25 -3.78125 C 1.328125 -4.78125 1.8125 -6.1875 3.109375 -6.1875 C 3.484375 -6.1875 3.78125 -6.078125 4.140625 -5.96875 L 4.140625 -6.453125 C 4.140625 -6.671875 3.453125 -6.765625 3.09375 -6.765625 C 1.421875 -6.765625 0.515625 -5 0.421875 -3.453125 L 0.421875 -3.28125 C 0.421875 -1.890625 0.71875 0.203125 2.546875 0.203125 C 3.390625 0.203125 4.109375 -0.453125 4.390625 -1.203125 C 4.53125 -1.53125 4.5625 -1.875 4.5625 -2.21875 C 4.5625 -3.1875 4.0625 -4.609375 2.9375 -4.609375 C 2.28125 -4.609375 1.6875 -4.296875 1.25 -3.78125 Z M 1.265625 -2.1875 C 1.28125 -2.21875 1.296875 -2.234375 1.296875 -2.265625 C 1.296875 -2.296875 1.28125 -2.34375 1.28125 -2.375 L 1.28125 -2.453125 C 1.28125 -3.171875 1.703125 -4 2.5625 -4 C 3.421875 -4 3.734375 -3.078125 3.734375 -2.28125 C 3.734375 -1.59375 3.65625 -0.6875 2.765625 -0.421875 C 2.6875 -0.40625 2.59375 -0.40625 2.5 -0.40625 L 2.421875 -0.40625 C 1.53125 -0.484375 1.390625 -1.53125 1.265625 -2.1875 Z M 1.265625 -2.1875 "/>
</symbol>
<symbol overflow="visible" id="glyph1-0">
<path style="stroke:none;" d=""/>
</symbol>
<symbol overflow="visible" id="glyph1-1">
<path style="stroke:none;" d="M 3.734375 -0.765625 C 3.734375 -0.453125 3.734375 0 4.765625 0 L 5.25 0 C 5.4375 0 5.5625 0 5.5625 -0.234375 C 5.5625 -0.46875 5.4375 -0.46875 5.296875 -0.46875 C 4.6875 -0.484375 4.6875 -0.609375 4.6875 -0.84375 L 4.6875 -2.984375 C 4.6875 -3.875 3.984375 -4.515625 2.5 -4.515625 C 1.9375 -4.515625 0.71875 -4.46875 0.71875 -3.59375 C 0.71875 -3.15625 1.0625 -2.96875 1.328125 -2.96875 C 1.640625 -2.96875 1.96875 -3.1875 1.96875 -3.59375 C 1.96875 -3.890625 1.78125 -4.0625 1.75 -4.09375 C 2.03125 -4.140625 2.34375 -4.15625 2.46875 -4.15625 C 3.203125 -4.15625 3.5625 -3.734375 3.5625 -2.984375 L 3.5625 -2.640625 C 2.84375 -2.609375 0.3125 -2.515625 0.3125 -1.078125 C 0.3125 -0.125 1.5625 0.0625 2.25 0.0625 C 3.046875 0.0625 3.515625 -0.34375 3.734375 -0.765625 Z M 3.5625 -2.328125 L 3.5625 -1.390625 C 3.5625 -0.421875 2.640625 -0.296875 2.390625 -0.296875 C 1.890625 -0.296875 1.484375 -0.640625 1.484375 -1.09375 C 1.484375 -2.15625 3.0625 -2.296875 3.5625 -2.328125 Z M 3.5625 -2.328125 "/>
</symbol>
<symbol overflow="visible" id="glyph1-2">
<path style="stroke:none;" d="M 2.140625 -4 L 2.140625 -6.921875 L 0.375 -6.84375 L 0.375 -6.375 C 0.984375 -6.375 1.0625 -6.375 1.0625 -5.984375 L 1.0625 0 L 1.53125 0 L 2.015625 -0.5625 C 2.09375 -0.484375 2.578125 0.0625 3.46875 0.0625 C 4.953125 0.0625 5.984375 -0.84375 5.984375 -2.21875 C 5.984375 -3.546875 5.046875 -4.484375 3.59375 -4.484375 C 2.875 -4.484375 2.375 -4.203125 2.140625 -4 Z M 2.1875 -0.984375 L 2.1875 -3.484375 C 2.46875 -3.84375 2.9375 -4.125 3.484375 -4.125 C 4.703125 -4.125 4.703125 -2.921875 4.703125 -2.21875 C 4.703125 -1.75 4.703125 -1.203125 4.453125 -0.8125 C 4.15625 -0.40625 3.703125 -0.296875 3.375 -0.296875 C 2.6875 -0.296875 2.296875 -0.84375 2.1875 -0.984375 Z M 2.1875 -0.984375 "/>
</symbol>
<symbol overflow="visible" id="glyph1-3">
<path style="stroke:none;" d="M 3.59375 -4.0625 C 3.40625 -3.890625 3.390625 -3.6875 3.390625 -3.59375 C 3.390625 -3.15625 3.734375 -2.96875 4 -2.96875 C 4.3125 -2.96875 4.640625 -3.1875 4.640625 -3.59375 C 4.640625 -4.453125 3.484375 -4.515625 2.90625 -4.515625 C 1.109375 -4.515625 0.375 -3.375 0.375 -2.21875 C 0.375 -0.890625 1.3125 0.0625 2.84375 0.0625 C 4.46875 0.0625 4.765625 -1.09375 4.765625 -1.171875 C 4.765625 -1.3125 4.625 -1.3125 4.53125 -1.3125 C 4.34375 -1.3125 4.34375 -1.28125 4.28125 -1.15625 C 4.03125 -0.53125 3.546875 -0.34375 3.046875 -0.34375 C 1.65625 -0.34375 1.65625 -1.796875 1.65625 -2.265625 C 1.65625 -2.828125 1.65625 -4.109375 2.9375 -4.109375 C 3.296875 -4.109375 3.453125 -4.09375 3.59375 -4.0625 Z M 3.59375 -4.0625 "/>
</symbol>
<symbol overflow="visible" id="glyph1-4">
<path style="stroke:none;" d="M 4.171875 -0.421875 L 4.171875 0.0625 L 5.984375 0 L 5.984375 -0.46875 C 5.375 -0.46875 5.296875 -0.46875 5.296875 -0.859375 L 5.296875 -6.921875 L 3.53125 -6.84375 L 3.53125 -6.375 C 4.15625 -6.375 4.234375 -6.375 4.234375 -5.984375 L 4.234375 -4.03125 C 3.734375 -4.421875 3.203125 -4.484375 2.875 -4.484375 C 1.421875 -4.484375 0.375 -3.609375 0.375 -2.203125 C 0.375 -0.890625 1.296875 0.0625 2.765625 0.0625 C 3.375 0.0625 3.859375 -0.171875 4.171875 -0.421875 Z M 4.171875 -3.515625 L 4.171875 -1.03125 C 4.03125 -0.84375 3.625 -0.296875 2.875 -0.296875 C 1.65625 -0.296875 1.65625 -1.5 1.65625 -2.203125 C 1.65625 -2.6875 1.65625 -3.21875 1.90625 -3.609375 C 2.203125 -4.03125 2.671875 -4.125 2.984375 -4.125 C 3.546875 -4.125 3.953125 -3.8125 4.171875 -3.515625 Z M 4.171875 -3.515625 "/>
</symbol>
<symbol overflow="visible" id="glyph1-5">
<path style="stroke:none;" d="M 4.609375 -2.171875 C 4.828125 -2.171875 4.921875 -2.171875 4.921875 -2.4375 C 4.921875 -2.75 4.859375 -3.484375 4.359375 -3.984375 C 4 -4.34375 3.46875 -4.515625 2.78125 -4.515625 C 1.1875 -4.515625 0.3125 -3.484375 0.3125 -2.25 C 0.3125 -0.90625 1.3125 0.0625 2.921875 0.0625 C 4.5 0.0625 4.921875 -1 4.921875 -1.171875 C 4.921875 -1.34375 4.734375 -1.34375 4.6875 -1.34375 C 4.515625 -1.34375 4.5 -1.296875 4.4375 -1.140625 C 4.234375 -0.65625 3.65625 -0.34375 3.015625 -0.34375 C 1.609375 -0.34375 1.59375 -1.671875 1.59375 -2.171875 Z M 1.59375 -2.5 C 1.609375 -2.890625 1.625 -3.3125 1.828125 -3.640625 C 2.09375 -4.03125 2.5 -4.15625 2.78125 -4.15625 C 3.953125 -4.15625 3.96875 -2.84375 3.984375 -2.5 Z M 1.59375 -2.5 "/>
</symbol>
<symbol overflow="visible" id="glyph1-6">
<path style="stroke:none;" d="M 1.171875 -4.421875 L 0.421875 -4.421875 L 0.421875 -3.953125 L 1.171875 -3.953125 L 1.171875 -0.46875 L 0.484375 -0.46875 L 0.484375 0 C 0.828125 -0.015625 1.28125 -0.03125 1.734375 -0.03125 C 2.109375 -0.03125 2.75 -0.03125 3.109375 0 L 3.109375 -0.46875 L 2.25 -0.46875 L 2.25 -3.953125 L 3.390625 -3.953125 L 3.390625 -4.421875 L 2.1875 -4.421875 L 2.1875 -5.4375 C 2.1875 -6.53125 2.9375 -6.625 3.1875 -6.625 C 3.234375 -6.625 3.296875 -6.625 3.359375 -6.59375 C 3.203125 -6.484375 3.125 -6.296875 3.125 -6.109375 C 3.125 -5.6875 3.484375 -5.5 3.734375 -5.5 C 4.03125 -5.5 4.359375 -5.703125 4.359375 -6.109375 C 4.359375 -6.53125 4 -6.984375 3.21875 -6.984375 C 2.25 -6.984375 1.171875 -6.5625 1.171875 -5.4375 Z M 1.171875 -4.421875 "/>
</symbol>
</g>
</defs>
<g id="surface1">
<path style="fill:none;stroke-width:0.3985;stroke-linecap:butt;stroke-linejoin:miter;stroke:rgb(75%,75%,75%);stroke-opacity:1;stroke-miterlimit:10;" d="M -56.694437 -56.692469 L 170.079 -56.692469 M -56.694437 -28.348719 L 170.079 -28.348719 M -56.694437 -0.0010625 L 170.079 -0.0010625 M -56.694437 28.346594 L 170.079 28.346594 M -56.694437 56.69425 L 170.079 56.69425 M -56.694437 85.041906 L 170.079 85.041906 M -56.694437 113.385656 L 170.079 113.385656 M -56.694437 141.7255 L 170.079 141.7255 M -56.694437 -56.692469 L -56.694437 141.733313 M -28.346781 -56.692469 L -28.346781 141.733313 M 0.000875 -56.692469 L 0.000875 141.733313 M 28.348531 -56.692469 L 28.348531 141.733313 M 56.692281 -56.692469 L 56.692281 141.733313 M 85.039938 -56.692469 L 85.039938 141.733313 M 113.387594 -56.692469 L 113.387594 141.733313 M 141.73525 -56.692469 L 141.73525 141.733313 M 170.071188 -56.692469 L 170.071188 141.733313 " transform="matrix(1,0,0,-1,81.171,151.163)"/>
<path style="fill:none;stroke-width:0.3985;stroke-linecap:butt;stroke-linejoin:miter;stroke:rgb(0%,0%,0%);stroke-opacity:1;stroke-miterlimit:10;" d="M 0.000875 -0.0010625 L 0.000875 85.041906 L 113.387594 85.041906 L 113.387594 -0.0010625 Z M 0.000875 -0.0010625 " transform="matrix(1,0,0,-1,81.171,151.163)"/>
<g style="fill:rgb(0%,0%,0%);fill-opacity:1;">
  <use xlink:href="#glyph0-1" x="20.328" y="225.306"/>
  <use xlink:href="#glyph0-2" x="23.648535" y="225.306"/>
</g>
<g style="fill:rgb(0%,0%,0%);fill-opacity:1;">
  <use xlink:href="#glyph0-1" x="48.674" y="225.306"/>
  <use xlink:href="#glyph0-3" x="51.994535" y="225.306"/>
</g>
<g style="fill:rgb(0%,0%,0%);fill-opacity:1;">
  <use xlink:href="#glyph0-4" x="78.68" y="225.306"/>
</g>
<g style="fill:rgb(0%,0%,0%);fill-opacity:1;">
  <use xlink:href="#glyph0-3" x="107.027" y="225.306"/>
</g>
<g style="fill:rgb(0%,0%,0%);fill-opacity:1;">
  <use xlink:href="#glyph0-2" x="135.373" y="225.306"/>
</g>
<g style="fill:rgb(0%,0%,0%);fill-opacity:1;">
  <use xlink:href="#glyph0-5" x="163.72" y="225.306"/>
</g>
<g style="fill:rgb(0%,0%,0%);fill-opacity:1;">
  <use xlink:href="#glyph0-6" x="192.066" y="225.306"/>
</g>
<g style="fill:rgb(0%,0%,0%);fill-opacity:1;">
  <use xlink:href="#glyph0-7" x="220.413" y="225.306"/>
</g>
<g style="fill:rgb(0%,0%,0%);fill-opacity:1;">
  <use xlink:href="#glyph0-8" x="248.759" y="225.306"/>
</g>
<g style="fill:rgb(0%,0%,0%);fill-opacity:1;">
  <use xlink:href="#glyph0-1" x="6.154" y="211.132"/>
  <use xlink:href="#glyph0-2" x="9.474535" y="211.132"/>
</g>
<g style="fill:rgb(0%,0%,0%);fill-opacity:1;">
  <use xlink:href="#glyph0-1" x="6.154" y="182.786"/>
  <use xlink:href="#glyph0-3" x="9.474535" y="182.786"/>
</g>
<g style="fill:rgb(0%,0%,0%);fill-opacity:1;">
  <use xlink:href="#glyph0-4" x="7.814" y="154.44"/>
</g>
<g style="fill:rgb(0%,0%,0%);fill-opacity:1;">
  <use xlink:href="#glyph0-3" x="7.814" y="126.093"/>
</g>
<g style="fill:rgb(0%,0%,0%);fill-opacity:1;">
  <use xlink:href="#glyph0-2" x="7.814" y="97.747"/>
</g>
<g style="fill:rgb(0%,0%,0%);fill-opacity:1;">
  <use xlink:href="#glyph0-5" x="7.814" y="69.4"/>
</g>
<g style="fill:rgb(0%,0%,0%);fill-opacity:1;">
  <use xlink:href="#glyph0-6" x="7.814" y="41.054"/>
</g>
<g style="fill:rgb(0%,0%,0%);fill-opacity:1;">
  <use xlink:href="#glyph0-7" x="7.814" y="12.707"/>
</g>
<path style=" stroke:none;fill-rule:nonzero;fill:rgb(0%,0%,100%);fill-opacity:1;" d="M 139.976562 179.511719 C 139.976562 178.34375 139.03125 177.394531 137.863281 177.394531 C 136.699219 177.394531 135.75 178.34375 135.75 179.511719 C 135.75 180.675781 136.699219 181.625 137.863281 181.625 C 139.03125 181.625 139.976562 180.675781 139.976562 179.511719 Z M 139.976562 179.511719 "/>
<g style="fill:rgb(0%,0%,0%);fill-opacity:1;">
  <use xlink:href="#glyph1-1" x="143.018" y="189.091"/>
</g>
<path style=" stroke:none;fill-rule:nonzero;fill:rgb(0%,0%,100%);fill-opacity:1;" d="M 139.976562 122.816406 C 139.976562 121.648438 139.03125 120.703125 137.863281 120.703125 C 136.699219 120.703125 135.75 121.648438 135.75 122.816406 C 135.75 123.984375 136.699219 124.929688 137.863281 124.929688 C 139.03125 124.929688 139.976562 123.984375 139.976562 122.816406 Z M 139.976562 122.816406 "/>
<g style="fill:rgb(0%,0%,0%);fill-opacity:1;">
  <use xlink:href="#glyph1-2" x="143.018" y="134.889"/>
</g>
<path style=" stroke:none;fill-rule:nonzero;fill:rgb(0%,0%,100%);fill-opacity:1;" d="M 225.019531 94.46875 C 225.019531 93.300781 224.070312 92.355469 222.90625 92.355469 C 221.738281 92.355469 220.792969 93.300781 220.792969 94.46875 C 220.792969 95.636719 221.738281 96.582031 222.90625 96.582031 C 224.070312 96.582031 225.019531 95.636719 225.019531 94.46875 Z M 225.019531 94.46875 "/>
<g style="fill:rgb(0%,0%,0%);fill-opacity:1;">
  <use xlink:href="#glyph1-3" x="228.057" y="104.052"/>
</g>
<path style=" stroke:none;fill-rule:nonzero;fill:rgb(0%,0%,100%);fill-opacity:1;" d="M 168.324219 122.816406 C 168.324219 121.648438 167.378906 120.703125 166.210938 120.703125 C 165.042969 120.703125 164.097656 121.648438 164.097656 122.816406 C 164.097656 123.984375 165.042969 124.929688 166.210938 124.929688 C 167.378906 124.929688 168.324219 123.984375 168.324219 122.816406 Z M 168.324219 122.816406 "/>
<g style="fill:rgb(0%,0%,0%);fill-opacity:1;">
  <use xlink:href="#glyph1-4" x="171.364" y="134.889"/>
</g>
<path style=" stroke:none;fill-rule:nonzero;fill:rgb(0%,0%,100%);fill-opacity:1;" d="M 54.9375 122.816406 C 54.9375 121.648438 53.992188 120.703125 52.824219 120.703125 C 51.65625 120.703125 50.710938 121.648438 50.710938 122.816406 C 50.710938 123.984375 51.65625 124.929688 52.824219 124.929688 C 53.992188 124.929688 54.9375 123.984375 54.9375 122.816406 Z M 54.9375 122.816406 "/>
<g style="fill:rgb(0%,0%,0%);fill-opacity:1;">
  <use xlink:href="#glyph1-5" x="57.978" y="132.399"/>
</g>
<path style=" stroke:none;fill-rule:nonzero;fill:rgb(0%,0%,100%);fill-opacity:1;" d="M 168.324219 37.777344 C 168.324219 36.609375 167.378906 35.664062 166.210938 35.664062 C 165.042969 35.664062 164.097656 36.609375 164.097656 37.777344 C 164.097656 38.941406 165.042969 39.890625 166.210938 39.890625 C 167.378906 39.890625 168.324219 38.941406 168.324219 37.777344 Z M 168.324219 37.777344 "/>
<g style="fill:rgb(0%,0%,0%);fill-opacity:1;">
  <use xlink:href="#glyph1-6" x="171.364" y="49.85"/>
</g>
<path style="fill:none;stroke-width:0.3985;stroke-linecap:butt;stroke-linejoin:miter;stroke:rgb(0%,0%,100%);stroke-opacity:1;stroke-miterlimit:10;" d="M 56.692281 -28.348719 L 56.692281 28.346594 M 141.73525 56.69425 L 85.039938 28.346594 M -28.346781 28.346594 L 85.039938 113.385656 " transform="matrix(1,0,0,-1,81.171,151.163)"/>
</g>
</svg>
