<?xml version="1.0" encoding="UTF-8"?>
<svg xmlns="http://www.w3.org/2000/svg" xmlns:xlink="http://www.w3.org/1999/xlink" width="210.811pt" height="104.263pt" viewBox="0 0 210.811 104.263" version="1.1">
<defs>
<clipPath id="clip1">
  <path d="M 5 0 L 210.8125 0 L 210.8125 104.261719 L 5 104.261719 Z M 5 0 "/>
</clipPath>
<clipPath id="clip2">
  <path d="M 0 0 L 210.8125 0 L 210.8125 104.261719 L 0 104.261719 Z M 0 0 "/>
</clipPath>
</defs>
<g id="surface1">
<path style=" stroke:none;fill-rule:nonzero;fill:rgb(79.998779%,79.998779%,100%);fill-opacity:0.5;" d="M 207.777344 23.785156 L 52.886719 3.03125 L 11.386719 80.476562 L 166.277344 101.230469 Z M 207.777344 23.785156 "/>
<g clip-path="url(#clip1)" clip-rule="nonzero">
<path style="fill:none;stroke-width:0.3985;stroke-linecap:butt;stroke-linejoin:miter;stroke:rgb(0%,0%,100%);stroke-opacity:0.5;stroke-miterlimit:10;" d="M 98.195344 28.345844 L -56.695281 49.09975 L -98.195281 -28.345562 L 56.695344 -49.099469 Z M 98.195344 28.345844 " transform="matrix(1,0,0,-1,109.582,52.131)"/>
</g>
<path style=" stroke:none;fill-rule:nonzero;fill:rgb(100%,79.998779%,79.998779%);fill-opacity:0.5;" d="M 166.277344 3.03125 L 3.03125 23.785156 L 52.886719 101.230469 L 207.777344 80.476562 Z M 166.277344 3.03125 "/>
<g clip-path="url(#clip2)" clip-rule="nonzero">
<path style="fill:none;stroke-width:0.3985;stroke-linecap:butt;stroke-linejoin:miter;stroke:rgb(100%,0%,0%);stroke-opacity:0.5;stroke-miterlimit:10;" d="M 56.695344 49.09975 L -106.55075 28.345844 L -56.695281 -49.099469 L 98.195344 -28.345562 Z M 56.695344 49.09975 " transform="matrix(1,0,0,-1,109.582,52.131)"/>
</g>
</g>
</svg>
