<?xml version="1.0" encoding="UTF-8"?>
<svg xmlns="http://www.w3.org/2000/svg" xmlns:xlink="http://www.w3.org/1999/xlink" width="261.784pt" height="147.782pt" viewBox="0 0 261.784 147.782" version="1.1">
<defs>
<g>
<symbol overflow="visible" id="glyph0-0">
<path style="stroke:none;" d=""/>
</symbol>
<symbol overflow="visible" id="glyph0-1">
<path style="stroke:none;" d="M 3.59375 -4.0625 C 3.40625 -3.890625 3.390625 -3.6875 3.390625 -3.59375 C 3.390625 -3.15625 3.734375 -2.96875 4 -2.96875 C 4.3125 -2.96875 4.640625 -3.1875 4.640625 -3.59375 C 4.640625 -4.453125 3.484375 -4.515625 2.90625 -4.515625 C 1.109375 -4.515625 0.375 -3.375 0.375 -2.21875 C 0.375 -0.890625 1.3125 0.0625 2.84375 0.0625 C 4.46875 0.0625 4.765625 -1.09375 4.765625 -1.171875 C 4.765625 -1.3125 4.625 -1.3125 4.53125 -1.3125 C 4.34375 -1.3125 4.34375 -1.28125 4.28125 -1.15625 C 4.03125 -0.53125 3.546875 -0.34375 3.046875 -0.34375 C 1.65625 -0.34375 1.65625 -1.796875 1.65625 -2.265625 C 1.65625 -2.828125 1.65625 -4.109375 2.9375 -4.109375 C 3.296875 -4.109375 3.453125 -4.09375 3.59375 -4.0625 Z M 3.59375 -4.0625 "/>
</symbol>
<symbol overflow="visible" id="glyph0-2">
<path style="stroke:none;" d="M 2.1875 -3.28125 C 2.1875 -3.46875 2.203125 -3.484375 2.34375 -3.625 C 2.734375 -4.03125 3.265625 -4.09375 3.484375 -4.09375 C 4.140625 -4.09375 4.703125 -3.484375 4.703125 -2.21875 C 4.703125 -0.8125 4 -0.296875 3.359375 -0.296875 C 3.21875 -0.296875 2.75 -0.296875 2.296875 -0.84375 C 2.1875 -0.96875 2.1875 -0.984375 2.1875 -1.171875 Z M 2.1875 -0.390625 C 2.625 -0.046875 3.0625 0.0625 3.46875 0.0625 C 4.96875 0.0625 5.984375 -0.84375 5.984375 -2.21875 C 5.984375 -3.546875 5.078125 -4.484375 3.640625 -4.484375 C 2.890625 -4.484375 2.359375 -4.171875 2.140625 -4 L 2.140625 -4.484375 L 0.375 -4.40625 L 0.375 -3.9375 C 0.984375 -3.9375 1.0625 -3.9375 1.0625 -3.5625 L 1.0625 1.46875 L 0.375 1.46875 L 0.375 1.9375 C 0.640625 1.921875 1.25 1.90625 1.625 1.90625 C 2.015625 1.90625 2.609375 1.921875 2.875 1.9375 L 2.875 1.46875 L 2.1875 1.46875 Z M 2.1875 -0.390625 "/>
</symbol>
<symbol overflow="visible" id="glyph0-3">
<path style="stroke:none;" d="M 4.171875 -0.421875 L 4.171875 0.0625 L 5.984375 0 L 5.984375 -0.46875 C 5.375 -0.46875 5.296875 -0.46875 5.296875 -0.859375 L 5.296875 -6.921875 L 3.53125 -6.84375 L 3.53125 -6.375 C 4.15625 -6.375 4.234375 -6.375 4.234375 -5.984375 L 4.234375 -4.03125 C 3.734375 -4.421875 3.203125 -4.484375 2.875 -4.484375 C 1.421875 -4.484375 0.375 -3.609375 0.375 -2.203125 C 0.375 -0.890625 1.296875 0.0625 2.765625 0.0625 C 3.375 0.0625 3.859375 -0.171875 4.171875 -0.421875 Z M 4.171875 -3.515625 L 4.171875 -1.03125 C 4.03125 -0.84375 3.625 -0.296875 2.875 -0.296875 C 1.65625 -0.296875 1.65625 -1.5 1.65625 -2.203125 C 1.65625 -2.6875 1.65625 -3.21875 1.90625 -3.609375 C 2.203125 -4.03125 2.671875 -4.125 2.984375 -4.125 C 3.546875 -4.125 3.953125 -3.8125 4.171875 -3.515625 Z M 4.171875 -3.515625 "/>
</symbol>
<symbol overflow="visible" id="glyph1-0">
<path style="stroke:none;" d=""/>
</symbol>
<symbol overflow="visible" id="glyph1-1">
<path style="stroke:none;" d="M 0.875 -0.59375 C 0.84375 -0.4375 0.78125 -0.203125 0.78125 -0.15625 C 0.78125 0.015625 0.921875 0.109375 1.078125 0.109375 C 1.203125 0.109375 1.375 0.03125 1.453125 -0.171875 C 1.46875 -0.203125 1.796875 -1.5625 1.84375 -1.75 C 1.921875 -2.078125 2.109375 -2.765625 2.15625 -3.046875 C 2.203125 -3.171875 2.484375 -3.640625 2.71875 -3.859375 C 2.796875 -3.921875 3.09375 -4.1875 3.515625 -4.1875 C 3.78125 -4.1875 3.921875 -4.0625 3.9375 -4.0625 C 3.640625 -4.015625 3.421875 -3.78125 3.421875 -3.515625 C 3.421875 -3.359375 3.53125 -3.171875 3.796875 -3.171875 C 4.0625 -3.171875 4.34375 -3.40625 4.34375 -3.765625 C 4.34375 -4.109375 4.03125 -4.40625 3.515625 -4.40625 C 2.875 -4.40625 2.4375 -3.921875 2.25 -3.640625 C 2.15625 -4.09375 1.796875 -4.40625 1.328125 -4.40625 C 0.875 -4.40625 0.6875 -4.015625 0.59375 -3.84375 C 0.421875 -3.5 0.296875 -2.90625 0.296875 -2.875 C 0.296875 -2.765625 0.390625 -2.765625 0.40625 -2.765625 C 0.515625 -2.765625 0.515625 -2.78125 0.578125 -3 C 0.75 -3.703125 0.953125 -4.1875 1.3125 -4.1875 C 1.46875 -4.1875 1.609375 -4.109375 1.609375 -3.734375 C 1.609375 -3.515625 1.578125 -3.40625 1.453125 -2.890625 Z M 0.875 -0.59375 "/>
</symbol>
</g>
<clipPath id="clip1">
  <path d="M 102 16 L 245 16 L 245 147.78125 L 102 147.78125 Z M 102 16 "/>
</clipPath>
<clipPath id="clip2">
  <path d="M 102 16 L 245 16 L 245 147.78125 L 102 147.78125 Z M 102 16 "/>
</clipPath>
</defs>
<g id="surface1">
<g clip-path="url(#clip1)" clip-rule="nonzero">
<path style="fill:none;stroke-width:0.99628;stroke-linecap:butt;stroke-linejoin:miter;stroke:rgb(0%,0%,0%);stroke-opacity:1;stroke-miterlimit:10;" d="M 56.694469 -0.0018125 C 56.694469 31.310688 31.311656 56.6935 -0.00084375 56.6935 C -31.313344 56.6935 -56.69225 31.310688 -56.69225 -0.0018125 C -56.69225 -31.310406 -31.313344 -56.693219 -0.00084375 -56.693219 C 31.311656 -56.693219 56.694469 -31.310406 56.694469 -0.0018125 Z M 56.694469 -0.0018125 " transform="matrix(1,0,0,-1,173.411,87.756)"/>
</g>
<path style="fill:none;stroke-width:0.99628;stroke-linecap:butt;stroke-linejoin:miter;stroke:rgb(0%,0%,0%);stroke-opacity:1;stroke-miterlimit:10;" d="M -170.078969 70.865375 L 85.042125 70.865375 " transform="matrix(1,0,0,-1,173.411,87.756)"/>
<path style=" stroke:none;fill-rule:nonzero;fill:rgb(100%,100%,100%);fill-opacity:0.75;" d="M 230.105469 87.757812 C 230.105469 56.445312 204.722656 31.0625 173.410156 31.0625 C 142.097656 31.0625 116.71875 56.445312 116.71875 87.757812 C 116.71875 119.066406 142.097656 144.449219 173.410156 144.449219 C 204.722656 144.449219 230.105469 119.066406 230.105469 87.757812 Z M 230.105469 87.757812 "/>
<g clip-path="url(#clip2)" clip-rule="nonzero">
<path style="fill:none;stroke-width:0.99628;stroke-linecap:butt;stroke-linejoin:miter;stroke:rgb(0%,0%,0%);stroke-opacity:1;stroke-miterlimit:10;" d="M 56.694469 -0.0018125 C 56.694469 31.310688 31.311656 56.6935 -0.00084375 56.6935 C -31.313344 56.6935 -56.69225 31.310688 -56.69225 -0.0018125 C -56.69225 -31.310406 -31.313344 -56.693219 -0.00084375 -56.693219 C 31.311656 -56.693219 56.694469 -31.310406 56.694469 -0.0018125 Z M 56.694469 -0.0018125 " transform="matrix(1,0,0,-1,173.411,87.756)"/>
</g>
<path style=" stroke:none;fill-rule:nonzero;fill:rgb(0%,0%,0%);fill-opacity:1;" d="M 175.523438 87.757812 C 175.523438 86.589844 174.578125 85.640625 173.410156 85.640625 C 172.242188 85.640625 171.296875 86.589844 171.296875 87.757812 C 171.296875 88.921875 172.242188 89.871094 173.410156 89.871094 C 174.578125 89.871094 175.523438 88.921875 175.523438 87.757812 Z M 175.523438 87.757812 "/>
<g style="fill:rgb(0%,0%,0%);fill-opacity:1;">
  <use xlink:href="#glyph0-1" x="170.865" y="98.016"/>
</g>
<path style=" stroke:none;fill-rule:nonzero;fill:rgb(0%,0%,100%);fill-opacity:1;" d="M 33.789062 16.890625 C 33.789062 15.722656 32.84375 14.777344 31.675781 14.777344 C 30.507812 14.777344 29.5625 15.722656 29.5625 16.890625 C 29.5625 18.054688 30.507812 19.003906 31.675781 19.003906 C 32.84375 19.003906 33.789062 18.054688 33.789062 16.890625 Z M 33.789062 16.890625 "/>
<g style="fill:rgb(0%,0%,0%);fill-opacity:1;">
  <use xlink:href="#glyph0-2" x="28.497" y="27.15"/>
</g>
<path style="fill:none;stroke-width:0.99628;stroke-linecap:butt;stroke-linejoin:miter;stroke:rgb(0%,0%,100%);stroke-opacity:1;stroke-miterlimit:10;" d="M -139.422719 70.865375 L -86.688344 70.865375 " transform="matrix(1,0,0,-1,173.411,87.756)"/>
<path style="fill-rule:nonzero;fill:rgb(0%,0%,100%);fill-opacity:1;stroke-width:0.99628;stroke-linecap:butt;stroke-linejoin:miter;stroke:rgb(0%,0%,100%);stroke-opacity:1;stroke-miterlimit:10;" d="M -6.503 2.92025 L 0.372 -0.001625 L -6.503 -2.919594 Z M -6.503 2.92025 " transform="matrix(1,0,0,-1,86.72175,16.889)"/>
<g style="fill:rgb(0%,0%,100%);fill-opacity:1;">
  <use xlink:href="#glyph0-3" x="57.999" y="13.072"/>
</g>
<path style="fill:none;stroke-width:0.3985;stroke-linecap:butt;stroke-linejoin:miter;stroke:rgb(0%,0%,0%);stroke-opacity:1;stroke-miterlimit:10;" d="M -0.00084375 52.310688 L -0.00084375 6.697406 " transform="matrix(1,0,0,-1,173.411,87.756)"/>
<path style=" stroke:none;fill-rule:nonzero;fill:rgb(0%,0%,0%);fill-opacity:1;" d="M 173.410156 33.054688 C 173.210938 34.050781 172.8125 35.84375 171.917969 37.039062 C 173.011719 36.042969 173.808594 36.042969 174.90625 37.039062 C 174.007812 35.84375 173.609375 34.050781 173.410156 33.054688 Z M 173.410156 33.054688 "/>
<path style=" stroke:none;fill-rule:nonzero;fill:rgb(0%,0%,0%);fill-opacity:1;" d="M 173.410156 83.449219 C 173.609375 82.453125 174.007812 80.660156 174.90625 79.464844 C 173.808594 80.460938 173.011719 80.460938 171.917969 79.464844 C 172.8125 80.660156 173.210938 82.453125 173.410156 83.449219 Z M 173.410156 83.449219 "/>
<g style="fill:rgb(0%,0%,0%);fill-opacity:1;">
  <use xlink:href="#glyph1-1" x="165.121" y="60.398"/>
</g>
</g>
</svg>
