<?xml version="1.0" encoding="UTF-8"?>
<svg xmlns="http://www.w3.org/2000/svg" xmlns:xlink="http://www.w3.org/1999/xlink" width="300.122pt" height="162.973pt" viewBox="0 0 300.122 162.973" version="1.1">
<defs>
<g>
<symbol overflow="visible" id="glyph0-0">
<path style="stroke:none;" d=""/>
</symbol>
<symbol overflow="visible" id="glyph0-1">
<path style="stroke:none;" d="M 5.046875 -3.75 C 5.109375 -3.890625 5.140625 -3.953125 5.78125 -3.953125 L 5.78125 -4.421875 C 5.53125 -4.40625 5.25 -4.390625 5 -4.390625 C 4.75 -4.390625 4.296875 -4.421875 4.09375 -4.421875 L 4.09375 -3.953125 C 4.28125 -3.953125 4.5625 -3.921875 4.5625 -3.84375 C 4.5625 -3.84375 4.5625 -3.8125 4.515625 -3.734375 L 3.359375 -1.234375 L 2.09375 -3.953125 L 2.625 -3.953125 L 2.625 -4.421875 C 2.296875 -4.40625 1.40625 -4.390625 1.390625 -4.390625 C 1.109375 -4.390625 0.671875 -4.421875 0.265625 -4.421875 L 0.265625 -3.953125 L 0.890625 -3.953125 L 2.640625 -0.203125 C 2.765625 0.046875 2.890625 0.046875 3.015625 0.046875 C 3.1875 0.046875 3.296875 0.015625 3.390625 -0.203125 Z M 5.046875 -3.75 "/>
</symbol>
<symbol overflow="visible" id="glyph0-2">
<path style="stroke:none;" d="M 2.234375 -4.484375 L 0.5 -4.40625 L 0.5 -3.9375 C 1.09375 -3.9375 1.15625 -3.9375 1.15625 -3.546875 L 1.15625 -0.46875 L 0.46875 -0.46875 L 0.46875 0 C 0.78125 -0.015625 1.265625 -0.03125 1.6875 -0.03125 C 1.984375 -0.03125 2.5 -0.015625 2.84375 0 L 2.84375 -0.46875 L 2.234375 -0.46875 Z M 2.328125 -6.15625 C 2.328125 -6.59375 1.96875 -6.921875 1.5625 -6.921875 C 1.125 -6.921875 0.78125 -6.578125 0.78125 -6.15625 C 0.78125 -5.71875 1.125 -5.375 1.5625 -5.375 C 1.96875 -5.375 2.328125 -5.71875 2.328125 -6.15625 Z M 2.328125 -6.15625 "/>
</symbol>
<symbol overflow="visible" id="glyph1-0">
<path style="stroke:none;" d=""/>
</symbol>
<symbol overflow="visible" id="glyph1-1">
<path style="stroke:none;" d="M 3.515625 -1.265625 L 3.28125 -1.265625 C 3.265625 -1.109375 3.1875 -0.703125 3.09375 -0.640625 C 3.046875 -0.59375 2.515625 -0.59375 2.40625 -0.59375 L 1.125 -0.59375 C 1.859375 -1.234375 2.109375 -1.4375 2.515625 -1.765625 C 3.03125 -2.171875 3.515625 -2.609375 3.515625 -3.265625 C 3.515625 -4.109375 2.78125 -4.625 1.890625 -4.625 C 1.03125 -4.625 0.4375 -4.015625 0.4375 -3.375 C 0.4375 -3.03125 0.734375 -2.984375 0.8125 -2.984375 C 0.96875 -2.984375 1.171875 -3.109375 1.171875 -3.359375 C 1.171875 -3.484375 1.125 -3.734375 0.765625 -3.734375 C 0.984375 -4.21875 1.453125 -4.375 1.78125 -4.375 C 2.484375 -4.375 2.84375 -3.828125 2.84375 -3.265625 C 2.84375 -2.65625 2.40625 -2.1875 2.1875 -1.9375 L 0.515625 -0.265625 C 0.4375 -0.203125 0.4375 -0.1875 0.4375 0 L 3.3125 0 Z M 3.515625 -1.265625 "/>
</symbol>
<symbol overflow="visible" id="glyph1-2">
<path style="stroke:none;" d="M 1.90625 -2.328125 C 2.453125 -2.328125 2.84375 -1.953125 2.84375 -1.203125 C 2.84375 -0.34375 2.328125 -0.078125 1.9375 -0.078125 C 1.65625 -0.078125 1.03125 -0.15625 0.75 -0.578125 C 1.078125 -0.578125 1.15625 -0.8125 1.15625 -0.96875 C 1.15625 -1.1875 0.984375 -1.34375 0.765625 -1.34375 C 0.578125 -1.34375 0.375 -1.21875 0.375 -0.9375 C 0.375 -0.28125 1.09375 0.140625 1.9375 0.140625 C 2.90625 0.140625 3.578125 -0.515625 3.578125 -1.203125 C 3.578125 -1.75 3.140625 -2.296875 2.375 -2.453125 C 3.09375 -2.71875 3.359375 -3.234375 3.359375 -3.671875 C 3.359375 -4.21875 2.734375 -4.625 1.953125 -4.625 C 1.1875 -4.625 0.59375 -4.25 0.59375 -3.6875 C 0.59375 -3.453125 0.75 -3.328125 0.953125 -3.328125 C 1.171875 -3.328125 1.3125 -3.484375 1.3125 -3.671875 C 1.3125 -3.875 1.171875 -4.03125 0.953125 -4.046875 C 1.203125 -4.34375 1.671875 -4.421875 1.9375 -4.421875 C 2.25 -4.421875 2.6875 -4.265625 2.6875 -3.671875 C 2.6875 -3.375 2.59375 -3.046875 2.40625 -2.84375 C 2.1875 -2.578125 1.984375 -2.5625 1.640625 -2.53125 C 1.46875 -2.515625 1.453125 -2.515625 1.421875 -2.515625 C 1.40625 -2.515625 1.34375 -2.5 1.34375 -2.421875 C 1.34375 -2.328125 1.40625 -2.328125 1.53125 -2.328125 Z M 1.90625 -2.328125 "/>
</symbol>
<symbol overflow="visible" id="glyph1-3">
<path style="stroke:none;" d="M 2.328125 -4.4375 C 2.328125 -4.625 2.328125 -4.625 2.125 -4.625 C 1.671875 -4.1875 1.046875 -4.1875 0.765625 -4.1875 L 0.765625 -3.9375 C 0.921875 -3.9375 1.390625 -3.9375 1.765625 -4.125 L 1.765625 -0.578125 C 1.765625 -0.34375 1.765625 -0.25 1.078125 -0.25 L 0.8125 -0.25 L 0.8125 0 C 0.9375 0 1.796875 -0.03125 2.046875 -0.03125 C 2.265625 -0.03125 3.140625 0 3.296875 0 L 3.296875 -0.25 L 3.03125 -0.25 C 2.328125 -0.25 2.328125 -0.34375 2.328125 -0.578125 Z M 2.328125 -4.4375 "/>
</symbol>
<symbol overflow="visible" id="glyph1-4">
<path style="stroke:none;" d="M 3.6875 -1.140625 L 3.6875 -1.390625 L 2.90625 -1.390625 L 2.90625 -4.5 C 2.90625 -4.640625 2.90625 -4.703125 2.765625 -4.703125 C 2.671875 -4.703125 2.640625 -4.703125 2.578125 -4.59375 L 0.265625 -1.390625 L 0.265625 -1.140625 L 2.328125 -1.140625 L 2.328125 -0.578125 C 2.328125 -0.328125 2.328125 -0.25 1.75 -0.25 L 1.5625 -0.25 L 1.5625 0 C 1.921875 -0.015625 2.359375 -0.03125 2.609375 -0.03125 C 2.875 -0.03125 3.3125 -0.015625 3.671875 0 L 3.671875 -0.25 L 3.484375 -0.25 C 2.90625 -0.25 2.90625 -0.328125 2.90625 -0.578125 L 2.90625 -1.140625 Z M 2.375 -3.9375 L 2.375 -1.390625 L 0.53125 -1.390625 Z M 2.375 -3.9375 "/>
</symbol>
</g>
</defs>
<g id="surface1">
<path style="fill:none;stroke-width:0.3985;stroke-linecap:butt;stroke-linejoin:miter;stroke:rgb(0%,0%,0%);stroke-opacity:1;stroke-dasharray:2.98883,2.98883;stroke-miterlimit:10;" d="M 85.039375 28.347031 L 198.426094 85.042344 L 28.347969 141.73375 L -56.695 85.042344 Z M 85.039375 28.347031 " transform="matrix(1,0,0,-1,79.195,159.64)"/>
<path style=" stroke:none;fill-rule:nonzero;fill:rgb(0%,0%,0%);fill-opacity:1;" d="M 279.734375 74.597656 C 279.734375 73.433594 278.789062 72.484375 277.621094 72.484375 C 276.457031 72.484375 275.507812 73.433594 275.507812 74.597656 C 275.507812 75.765625 276.457031 76.714844 277.621094 76.714844 C 278.789062 76.714844 279.734375 75.765625 279.734375 74.597656 Z M 279.734375 74.597656 "/>
<g style="fill:rgb(0%,0%,0%);fill-opacity:1;">
  <use xlink:href="#glyph0-1" x="283.452" y="76.068"/>
</g>
<g style="fill:rgb(0%,0%,0%);fill-opacity:1;">
  <use xlink:href="#glyph1-1" x="289.498" y="77.562"/>
</g>
<path style=" stroke:none;fill-rule:nonzero;fill:rgb(0%,0%,0%);fill-opacity:1;" d="M 109.65625 17.90625 C 109.65625 16.738281 108.710938 15.792969 107.542969 15.792969 C 106.375 15.792969 105.429688 16.738281 105.429688 17.90625 C 105.429688 19.074219 106.375 20.019531 107.542969 20.019531 C 108.710938 20.019531 109.65625 19.074219 109.65625 17.90625 Z M 109.65625 17.90625 "/>
<g style="fill:rgb(0%,0%,0%);fill-opacity:1;">
  <use xlink:href="#glyph0-1" x="102.283" y="10.582"/>
</g>
<g style="fill:rgb(0%,0%,0%);fill-opacity:1;">
  <use xlink:href="#glyph1-2" x="108.33" y="12.076"/>
</g>
<path style="fill-rule:nonzero;fill:rgb(89.99939%,89.99939%,100%);fill-opacity:1;stroke-width:0.3985;stroke-linecap:butt;stroke-linejoin:miter;stroke:rgb(0%,0%,0%);stroke-opacity:1;stroke-miterlimit:10;" d="M 85.039375 28.347031 L 170.082344 70.866562 L 170.094063 94.48375 L 113.387031 113.386094 L -14.171562 113.386094 L -56.695 85.042344 Z M 85.039375 28.347031 " transform="matrix(1,0,0,-1,79.195,159.64)"/>
<path style=" stroke:none;fill-rule:nonzero;fill:rgb(0%,0%,0%);fill-opacity:1;" d="M 166.347656 131.292969 C 166.347656 130.125 165.402344 129.179688 164.234375 129.179688 C 163.066406 129.179688 162.121094 130.125 162.121094 131.292969 C 162.121094 132.460938 163.066406 133.40625 164.234375 133.40625 C 165.402344 133.40625 166.347656 132.460938 166.347656 131.292969 Z M 166.347656 131.292969 "/>
<g style="fill:rgb(0%,0%,0%);fill-opacity:1;">
  <use xlink:href="#glyph0-1" x="158.976" y="141.553"/>
</g>
<g style="fill:rgb(0%,0%,0%);fill-opacity:1;">
  <use xlink:href="#glyph1-3" x="165.023" y="143.048"/>
</g>
<path style=" stroke:none;fill-rule:nonzero;fill:rgb(0%,0%,0%);fill-opacity:1;" d="M 251.390625 88.773438 C 251.390625 87.605469 250.441406 86.660156 249.277344 86.660156 C 248.109375 86.660156 247.164062 87.605469 247.164062 88.773438 C 247.164062 89.941406 248.109375 90.886719 249.277344 90.886719 C 250.441406 90.886719 251.390625 89.941406 251.390625 88.773438 Z M 251.390625 88.773438 "/>
<g style="fill:rgb(0%,0%,0%);fill-opacity:1;">
  <use xlink:href="#glyph0-2" x="254.428" y="100.847"/>
</g>
<g style="fill:rgb(0%,0%,0%);fill-opacity:1;">
  <use xlink:href="#glyph1-3" x="257.61" y="102.341"/>
</g>
<path style=" stroke:none;fill-rule:nonzero;fill:rgb(0%,0%,0%);fill-opacity:1;" d="M 251.402344 65.15625 C 251.402344 63.988281 250.457031 63.042969 249.289062 63.042969 C 248.121094 63.042969 247.175781 63.988281 247.175781 65.15625 C 247.175781 66.320312 248.121094 67.269531 249.289062 67.269531 C 250.457031 67.269531 251.402344 66.320312 251.402344 65.15625 Z M 251.402344 65.15625 "/>
<g style="fill:rgb(0%,0%,0%);fill-opacity:1;">
  <use xlink:href="#glyph0-2" x="254.44" y="58.507"/>
</g>
<g style="fill:rgb(0%,0%,0%);fill-opacity:1;">
  <use xlink:href="#glyph1-1" x="257.622" y="60.002"/>
</g>
<path style=" stroke:none;fill-rule:nonzero;fill:rgb(0%,0%,0%);fill-opacity:1;" d="M 194.695312 46.253906 C 194.695312 45.085938 193.75 44.140625 192.582031 44.140625 C 191.414062 44.140625 190.46875 45.085938 190.46875 46.253906 C 190.46875 47.421875 191.414062 48.367188 192.582031 48.367188 C 193.75 48.367188 194.695312 47.421875 194.695312 46.253906 Z M 194.695312 46.253906 "/>
<g style="fill:rgb(0%,0%,0%);fill-opacity:1;">
  <use xlink:href="#glyph0-2" x="197.735" y="39.606"/>
</g>
<g style="fill:rgb(0%,0%,0%);fill-opacity:1;">
  <use xlink:href="#glyph1-2" x="200.917" y="41.1"/>
</g>
<path style=" stroke:none;fill-rule:nonzero;fill:rgb(0%,0%,0%);fill-opacity:1;" d="M 67.136719 46.253906 C 67.136719 45.085938 66.1875 44.140625 65.023438 44.140625 C 63.855469 44.140625 62.90625 45.085938 62.90625 46.253906 C 62.90625 47.421875 63.855469 48.367188 65.023438 48.367188 C 66.1875 48.367188 67.136719 47.421875 67.136719 46.253906 Z M 67.136719 46.253906 "/>
<g style="fill:rgb(0%,0%,0%);fill-opacity:1;">
  <use xlink:href="#glyph0-2" x="52.216" y="39.606"/>
</g>
<g style="fill:rgb(0%,0%,0%);fill-opacity:1;">
  <use xlink:href="#glyph1-4" x="55.398" y="41.1"/>
</g>
<path style=" stroke:none;fill-rule:nonzero;fill:rgb(0%,0%,0%);fill-opacity:1;" d="M 24.613281 74.597656 C 24.613281 73.433594 23.667969 72.484375 22.5 72.484375 C 21.335938 72.484375 20.386719 73.433594 20.386719 74.597656 C 20.386719 75.765625 21.335938 76.714844 22.5 76.714844 C 23.667969 76.714844 24.613281 75.765625 24.613281 74.597656 Z M 24.613281 74.597656 "/>
<g style="fill:rgb(0%,0%,0%);fill-opacity:1;">
  <use xlink:href="#glyph0-1" x="6.154" y="76.068"/>
</g>
<g style="fill:rgb(0%,0%,0%);fill-opacity:1;">
  <use xlink:href="#glyph1-4" x="12.201" y="77.562"/>
</g>
<path style="fill:none;stroke-width:0.99628;stroke-linecap:butt;stroke-linejoin:miter;stroke:rgb(0%,0%,0%);stroke-opacity:1;stroke-miterlimit:10;" d="M 0.0003125 -0.000625 L 170.082344 -0.000625 L 170.082344 113.386094 L 0.0003125 113.386094 Z M 0.0003125 -0.000625 " transform="matrix(1,0,0,-1,79.195,159.64)"/>
</g>
</svg>
